# Blender v3.0.0 OBJ File: ''
# www.blender.org
mtllib vase1.mtl
o Jug1_1_Cylinder.011
v 0.000000 -1.000000 -0.980026
v 0.000000 -0.020531 -1.311316
v 0.692983 -1.000000 -0.692983
v 0.927240 -0.020531 -0.927240
v 0.980026 -1.000000 0.000000
v 1.311316 -0.020531 0.000000
v 0.692983 -1.000000 0.692983
v 0.927240 -0.020531 0.927240
v -0.000000 -1.000000 0.980026
v -0.000000 -0.020531 1.311316
v -0.692983 -1.000000 0.692983
v -0.927240 -0.020531 0.927240
v -0.980026 -1.000000 -0.000000
v -1.311316 -0.020531 -0.000000
v -0.692983 -1.000000 -0.692983
v -0.927240 -0.020531 -0.927240
v 0.000000 0.771255 -1.309085
v 0.925663 0.771255 -0.925663
v 1.309085 0.771255 0.000000
v 0.925663 0.771255 0.925663
v -0.000000 0.771255 1.309085
v -0.925663 0.771255 0.925663
v -1.309085 0.771255 -0.000000
v -0.925663 0.771255 -0.925663
v 0.000000 1.506734 -0.593798
v 0.419878 1.506734 -0.419878
v 0.593798 1.506734 0.000000
v 0.419878 1.506734 0.419878
v -0.000000 1.506734 0.593798
v -0.419878 1.506734 0.419878
v -0.593798 1.506734 -0.000000
v -0.419878 1.506734 -0.419878
v 0.000000 1.735479 -0.593798
v 0.419878 1.735479 -0.419878
v 0.593798 1.735479 0.000000
v 0.419878 1.735479 0.419878
v -0.000000 1.735479 0.593798
v -0.419878 1.735479 0.419878
v -0.593798 1.735479 -0.000000
v -0.419878 1.735479 -0.419878
v 0.000000 2.116719 -0.864758
v 0.611476 2.116719 -0.611476
v 0.864758 2.116719 0.000000
v 0.611476 2.116719 0.611476
v -0.000000 2.116719 0.864758
v -0.611476 2.116719 0.611476
v -0.864758 2.116719 -0.000000
v -0.611476 2.116719 -0.611476
v -0.000000 2.757702 -1.059807
v 0.749397 2.724932 -0.749397
v 1.218403 2.499886 0.000000
v 0.749397 2.724932 0.749397
v -0.000000 2.757702 1.059807
v -0.749397 2.650456 0.749397
v -1.059807 2.774951 -0.000000
v -0.749397 2.650456 -0.749397
v -0.000000 2.757702 -0.796923
v 0.563509 2.724932 -0.563509
v 0.955518 2.499886 0.000000
v 0.563509 2.724932 0.563509
v -0.000000 2.757702 0.796923
v -0.563509 2.650456 0.563509
v -0.796923 2.774951 -0.000000
v -0.563509 2.650456 -0.563509
v -0.000000 1.878277 -0.463699
v 0.327885 1.878277 -0.327885
v 0.463699 1.878277 0.000000
v 0.327885 1.878277 0.327885
v -0.000000 1.878277 0.463699
v -0.327885 1.878277 0.327884
v -0.463699 1.878277 -0.000000
v -0.327885 1.878277 -0.327884
v -0.000000 -0.383106 -0.463699
v 0.327885 -0.383106 -0.327885
v 0.463699 -0.383106 0.000000
v 0.327885 -0.383106 0.327885
v -0.000000 -0.383106 0.463699
v -0.327885 -0.383106 0.327884
v -0.463699 -0.383106 -0.000000
v -0.327885 -0.383106 -0.327884
v -0.836505 -1.000000 0.346492
v -1.119278 -0.020531 0.463620
v -1.117374 0.771255 0.462831
v -0.506838 1.506734 0.209939
v -0.506838 1.735479 0.209939
v -0.738117 2.116719 0.305738
v -0.904602 2.774951 0.374698
v -0.680216 2.774951 0.281755
v -0.395792 1.878277 0.163942
v -0.395792 -0.383106 0.163942
v -0.836505 -1.000000 -0.346492
v -1.119278 -0.020531 -0.463620
v -1.117374 0.771255 -0.462831
v -0.506838 1.506734 -0.209939
v -0.506838 1.735479 -0.209939
v -0.738117 2.116719 -0.305738
v -0.904602 2.774951 -0.374698
v -0.680216 2.774951 -0.281755
v -0.395792 1.878277 -0.163942
v -0.395792 -0.383106 -0.163942
v -0.000000 2.561433 -1.000083
v -0.707165 2.487026 -0.707165
v -1.000083 2.573400 -0.000000
v -0.707165 2.487026 0.707165
v -0.000000 2.561433 1.000083
v 0.707165 2.538697 0.707165
v 1.110116 2.382560 0.000000
v 0.707165 2.538697 -0.707165
v -0.853624 2.573400 0.353583
v -0.853624 2.573400 -0.353583
v -1.261490 2.655096 -0.000000
v -1.177305 2.655096 0.203242
v -1.177305 2.655096 -0.203242
v -1.229095 2.545772 -0.000000
v -1.149654 2.545772 0.191789
v -1.149654 2.545772 -0.191789
v -1.483735 2.389567 -0.000000
v -1.413948 2.436652 0.203242
v -1.413948 2.436652 -0.203242
v -1.395736 2.317060 -0.000000
v -1.329882 2.361491 0.191789
v -1.329882 2.361491 -0.191789
v -1.649182 1.887308 -0.000000
v -1.611383 1.962531 0.203242
v -1.611383 1.962531 -0.203242
v -1.536952 1.867168 -0.000000
v -1.501283 1.938151 0.191789
v -1.501283 1.938152 -0.191789
v -1.464036 1.228044 -0.000000
v -1.468277 1.312123 0.203242
v -1.468277 1.312123 -0.203242
v -1.356482 1.265906 -0.000000
v -1.360484 1.345246 0.191789
v -1.360484 1.345246 -0.191789
v -1.414776 0.639398 -0.000000
v -1.419017 0.723476 0.203242
v -1.419017 0.723476 -0.203242
v -1.286701 0.677259 -0.000000
v -1.290702 0.756599 0.191788
v -1.290702 0.756599 -0.191789
v -1.418848 0.499217 -0.000000
v -1.423089 0.583295 0.203242
v -1.423088 0.583295 -0.203242
v -1.290772 0.537078 -0.000000
v -1.294774 0.616418 0.191789
v -1.294774 0.616418 -0.191789
v -1.497687 0.303043 -0.000000
v -1.501927 0.387122 0.203242
v -1.501927 0.387122 -0.203242
v -1.390133 0.340904 -0.000000
v -1.394135 0.420244 0.191788
v -1.394135 0.420245 -0.191789
v 0.000000 -0.886370 -0.886735
v 0.627016 -0.886370 -0.627016
v 0.886735 -0.886370 0.000000
v 0.627016 -0.886370 0.627016
v -0.000000 -0.886370 0.886735
v -0.627016 -0.886370 0.627016
v -0.886735 -0.886370 -0.000000
v -0.627016 -0.886370 -0.627016
v -0.756876 -0.886370 0.313508
v -0.756876 -0.886370 -0.313508
v 0.692983 -0.939059 -0.692983
v 0.980026 -0.939059 0.000000
v 0.692983 -0.939059 0.692983
v -0.000000 -0.939059 0.980026
v -0.692983 -0.939059 0.692983
v -0.980026 -0.939059 -0.000000
v -0.692983 -0.939059 -0.692983
v -0.836505 -0.939059 0.346492
v -0.836505 -0.939059 -0.346492
v 0.000000 -0.939059 -0.980026
vt 0.275729 -0.365169
vt 0.357833 -0.205999
vt 0.232153 -0.142193
vt 0.138203 -0.303816
vt 0.103643 -0.069801
vt -0.001904 -0.233068
vt -0.026517 0.011421
vt -0.144308 -0.152973
vt -0.157048 0.102603
vt -0.287183 -0.063553
vt -0.289240 0.205964
vt -0.423782 0.033545
vt 0.596353 -0.487923
vt 0.675341 -0.348268
vt 0.608287 -0.316253
vt 0.536672 -0.467015
vt 0.479522 -0.261033
vt 0.524462 -0.167695
vt 0.410535 -0.110633
vt 0.411421 -0.415485
vt 0.477633 -0.439422
vt 0.542756 -0.290817
vt 1.394387 0.740498
vt 1.498088 0.844199
vt 1.498088 0.990855
vt 1.394387 1.094556
vt 1.247731 1.094556
vt 1.144030 0.990855
vt 1.144030 0.917527
vt 1.144030 0.844199
vt 1.195881 0.792349
vt 1.247731 0.740498
vt 0.618823 0.018999
vt 0.516611 0.099479
vt 0.646696 -0.220076
vt 0.585840 -0.190068
vt -0.365508 0.264233
vt -0.202253 0.305205
vt -0.260421 0.375731
vt -0.076244 0.200148
vt 0.046446 0.110545
vt 0.169706 0.029560
vt 0.291592 -0.044203
vt 0.654184 0.070704
vt 0.554465 0.152357
vt 0.708668 -0.041035
vt 0.666767 -0.011349
vt -0.039175 0.477649
vt -0.079622 0.512056
vt 0.060889 0.410057
vt 0.173783 0.337624
vt 0.291969 0.261133
vt 0.407080 0.180530
vt 0.731727 0.159262
vt 0.626569 0.249739
vt 0.739246 0.000174
vt 0.699572 0.032758
vt -0.011258 0.526194
vt -0.054856 0.546984
vt 0.092150 0.464730
vt 0.207633 0.396118
vt 0.329060 0.320460
vt 0.445256 0.236861
vt 0.688406 0.320446
vt 0.786564 0.215563
vt 0.807240 0.238758
vt 0.713149 0.348516
vt 0.818580 0.058055
vt 0.775102 0.105911
vt 0.019013 0.615242
vt -0.036973 0.623439
vt 0.136618 0.568959
vt 0.261804 0.508736
vt 0.395970 0.438285
vt 0.515815 0.341232
vt 0.863076 1.143600
vt 0.728547 1.055948
vt 0.771550 1.025762
vt 0.873344 1.093310
vt 0.855328 0.170564
vt 0.911736 0.101059
vt 0.962342 0.117133
vt 0.934677 0.158717
vt -0.028988 0.703895
vt 0.036084 0.683486
vt 0.042258 0.713236
vt -0.025938 0.739818
vt 0.169879 0.652609
vt 0.182916 0.687175
vt 0.300693 0.591561
vt 0.315146 0.624857
vt 0.439281 0.504187
vt 0.455632 0.529293
vt 0.575699 0.412461
vt 0.599824 0.439605
vt -0.501697 0.980347
vt -0.467746 0.893597
vt -0.306482 0.933697
vt -0.316107 1.011691
vt 0.705936 0.974356
vt 0.692789 0.896390
vt 0.741319 0.907182
vt 0.751648 0.963479
vt 0.737805 0.831586
vt 0.791048 0.767016
vt 0.817730 0.811814
vt 0.774841 0.860407
vt 0.948182 0.740498
vt 0.937418 0.790204
vt 1.078503 0.828794
vt 1.035733 0.857195
vt 1.143350 0.991256
vt 1.093864 0.980871
vt 1.018576 1.114194
vt 0.990740 1.070810
vt 0.150397 0.995970
vt 0.142599 1.060535
vt -0.468487 0.835603
vt -0.451752 0.785400
vt -0.287567 0.863755
vt -0.296395 0.898422
vt -0.448223 1.513106
vt -0.456017 1.453730
vt -0.306370 1.398360
vt -0.296641 1.431069
vt -0.498094 1.365331
vt -0.317770 1.324302
vt -0.508011 1.269728
vt -0.329106 1.248347
vt -0.495943 1.169296
vt -0.339230 1.168766
vt -0.508011 1.072039
vt -0.328323 1.089302
vt 1.262486 1.262759
vt 1.193096 1.262759
vt 1.144030 1.213692
vt 1.144030 1.178997
vt 1.144030 1.144302
vt 1.168563 1.119769
vt 1.193096 1.095236
vt 1.262486 1.095236
vt 1.311553 1.144302
vt 1.311553 1.213693
vt 0.159762 0.928020
vt 0.155099 0.961291
vt 0.130992 1.380863
vt 0.132241 1.413075
vt 0.129650 1.316748
vt 0.129842 1.252764
vt 0.132018 1.189847
vt 0.136397 1.125429
vt -0.482164 0.091422
vt 0.715337 -0.235789
vt 0.748017 -0.063036
vt 0.771507 -0.034068
vt 0.838250 0.004097
vt 0.910973 0.023496
vt 0.963623 0.067944
vt -0.423580 0.740498
vt -0.275456 0.830498
vt 0.164704 0.893481
vt 0.875531 0.209227
vt 1.019436 0.134650
vt 0.995342 0.168520
vt 1.018497 0.093146
vt 0.929749 0.182078
vt 0.936308 -0.003411
vt 0.971680 0.046023
vt 0.649640 0.886743
vt 0.671601 0.849887
vt 0.653770 0.929465
vt 1.108523 0.161856
vt 1.084568 0.195439
vt 1.107403 0.120623
vt 0.988948 0.187988
vt 1.023986 0.073478
vt 0.584940 0.872241
vt 0.608695 0.835701
vt 0.590818 0.915427
vt 1.212325 0.193529
vt 1.191794 0.220025
vt 1.210081 0.160084
vt 1.077162 0.213608
vt 1.111400 0.101422
vt 0.484871 0.849802
vt 0.508339 0.813055
vt 0.490401 0.893052
vt 1.296310 0.219152
vt 1.279080 0.242547
vt 1.295074 0.190123
vt 1.189857 0.237811
vt 1.218403 0.144247
vt 0.352741 0.820174
vt 0.378570 0.783202
vt 0.360310 0.864634
vt 1.314559 0.224719
vt 1.297914 0.246333
vt 1.312814 0.197495
vt 1.280166 0.263590
vt 1.307721 0.173270
vt 0.234806 0.793728
vt 0.260410 0.756906
vt 0.242235 0.837957
vt 1.341741 0.233012
vt 1.325700 0.254182
vt 1.340249 0.206493
vt 1.304118 0.265143
vt 1.328462 0.185351
vt 0.207178 0.787532
vt 0.232391 0.750781
vt 0.214283 0.831531
vt 1.357343 0.237772
vt 1.337871 0.266714
vt 1.357343 0.202889
vt 0.165384 0.778161
vt 0.190245 0.740520
vt 0.171792 0.822813
vt 0.267430 -0.384459
vt 0.128524 -0.323364
vt -0.012915 -0.252936
vt -0.156701 -0.173025
vt -0.300964 -0.083225
vt -0.438774 0.016531
vt 0.591510 -0.502940
vt 0.529654 -0.484746
vt 0.404013 -0.436346
vt 0.471324 -0.455329
vt -0.496887 0.077266
vt 0.262701 -0.396389
vt 0.122951 -0.335489
vt -0.019300 -0.265274
vt -0.163928 -0.185493
vt -0.309067 -0.095471
vt -0.448177 0.005352
vt 0.588498 -0.513106
vt 0.525935 -0.494568
vt 0.400417 -0.447339
vt 0.467132 -0.466258
vt -0.508011 0.066696
vn 0.3486 -0.4127 -0.8415
vn 0.8415 -0.4127 -0.3486
vn 0.8415 -0.4127 0.3486
vn 0.3486 -0.4127 0.8415
vn -0.3486 -0.4127 0.8415
vn -0.8415 -0.4127 0.3486
vn -0.3827 0.0026 -0.9239
vn -0.3486 -0.4127 -0.8415
vn -0.8415 -0.4127 -0.3486
vn 0.0000 -1.0000 0.0000
vn -0.2847 0.6684 -0.6872
vn -0.9239 0.0026 -0.3827
vn -0.9239 0.0026 0.3827
vn -0.3827 0.0026 0.9239
vn 0.3827 0.0026 0.9239
vn 0.9239 0.0026 0.3827
vn 0.9239 0.0026 -0.3827
vn 0.3827 0.0026 -0.9239
vn -0.3827 0.0000 -0.9239
vn -0.6872 0.6684 -0.2847
vn -0.6872 0.6684 0.2847
vn -0.2847 0.6684 0.6872
vn 0.2847 0.6684 0.6872
vn 0.6872 0.6684 0.2847
vn 0.6872 0.6684 -0.2847
vn 0.2847 0.6684 -0.6872
vn -0.3199 -0.5489 -0.7723
vn -0.9239 0.0000 -0.3827
vn -0.9239 0.0000 0.3827
vn -0.3827 0.0000 0.9239
vn 0.3827 0.0000 0.9239
vn 0.9239 0.0000 0.3827
vn 0.9239 0.0000 -0.3827
vn 0.3827 0.0000 -0.9239
vn -0.3344 -0.2931 -0.8957
vn -0.7723 -0.5489 -0.3199
vn -0.7723 -0.5489 0.3199
vn -0.3199 -0.5489 0.7723
vn 0.3199 -0.5489 0.7723
vn 0.7723 -0.5489 0.3199
vn 0.7723 -0.5489 -0.3199
vn 0.3199 -0.5489 -0.7723
vn -0.1379 0.9888 0.0571
vn 0.1196 -0.9916 0.0496
vn -0.9121 -0.2842 0.2955
vn -0.3344 -0.2931 0.8957
vn 0.3587 -0.2772 0.8914
vn 0.7193 -0.4323 0.5438
vn 0.7193 -0.4323 -0.5438
vn 0.3587 -0.2772 -0.8914
vn 0.3225 0.3491 0.8799
vn 0.0000 1.0000 -0.0000
vn 0.1894 0.9415 0.2787
vn -0.1379 0.9888 -0.0571
vn 0.0426 0.9989 -0.0176
vn 0.1072 0.9600 -0.2588
vn 0.1072 0.9600 0.2588
vn 0.0426 0.9989 0.0176
vn 0.8738 0.3247 0.3619
vn 0.8989 0.3389 -0.2777
vn 0.3225 0.3491 -0.8799
vn -0.3499 0.3360 -0.8745
vn -0.7184 0.4421 -0.5370
vn -0.7184 0.4421 0.5370
vn -0.3499 0.3360 0.8745
vn 0.1196 -0.9916 -0.0496
vn 0.8738 0.3247 -0.3619
vn -0.9121 -0.2842 -0.2955
vn 0.1894 0.9415 -0.2787
vn 0.8989 0.3389 0.2777
vn -0.3517 -0.2933 -0.8890
vn -0.8911 -0.2641 -0.3691
vn -0.8977 -0.2872 0.3342
vn -0.3517 -0.2933 0.8890
vn 0.3636 -0.2772 0.8894
vn 0.7785 -0.4473 0.4404
vn 0.7785 -0.4473 -0.4404
vn 0.3636 -0.2772 -0.8894
vn -0.8911 -0.2641 0.3691
vn -0.8977 -0.2872 -0.3342
vn 0.7486 -0.6287 0.2107
vn 0.7486 -0.6287 -0.2107
vn -0.4545 -0.2057 -0.8667
vn -0.4545 -0.2057 0.8667
vn -0.4998 0.8410 0.2070
vn -0.4998 0.8410 -0.2070
vn 0.9314 -0.3334 0.1462
vn 0.9314 -0.3334 -0.1462
vn 0.0752 -0.0779 -0.9941
vn 0.0752 -0.0779 0.9941
vn -0.7122 0.6753 0.1916
vn -0.7122 0.6753 -0.1916
vn 0.9501 0.2556 0.1786
vn 0.9501 0.2556 -0.1786
vn 0.0969 -0.0398 -0.9945
vn 0.0969 -0.0398 0.9945
vn -0.9279 0.3449 0.1418
vn -0.9279 0.3449 -0.1418
vn 0.9927 0.1177 0.0280
vn 0.9927 0.1177 -0.0280
vn 0.1036 0.0237 -0.9943
vn 0.1036 0.0237 0.9943
vn -0.9554 -0.2395 0.1727
vn -0.9554 -0.2395 -0.1727
vn 0.9990 -0.0290 -0.0328
vn 0.9990 -0.0290 0.0328
vn 0.0939 0.0095 -0.9955
vn 0.0939 0.0095 0.9955
vn -0.9964 -0.0834 0.0137
vn -0.9964 -0.0834 -0.0137
vn 0.8738 -0.4426 -0.2013
vn 0.8738 -0.4426 0.2013
vn 0.0896 -0.0026 -0.9960
vn 0.0896 -0.0026 0.9960
vn -0.9990 0.0290 -0.0329
vn -0.9990 0.0290 0.0328
vn 0.3086 -0.8767 -0.3691
vn 0.3086 -0.8767 0.3691
vn 0.1104 -0.0501 -0.9926
vn 0.1104 -0.0501 0.9926
vn -0.9142 0.3674 -0.1711
vn -0.9142 0.3674 0.1711
vn 0.1996 0.8532 -0.4819
vn 0.4819 0.8532 -0.1996
vn 0.4819 0.8532 0.1996
vn 0.1996 0.8532 0.4819
vn -0.1996 0.8532 0.4819
vn -0.4819 0.8532 0.1996
vn -0.1996 0.8532 -0.4819
vn -0.4819 0.8532 -0.1996
usemtl Pottery
s off
f 153/1/1 2/2/1 4/3/1 154/4/1
f 154/4/2 4/3/2 6/5/2 155/6/2
f 155/6/3 6/5/3 8/7/3 156/8/3
f 156/8/4 8/7/4 10/9/4 157/10/4
f 157/10/5 10/9/5 12/11/5 158/12/5
f 161/13/6 82/14/6 14/15/6 159/16/6
f 2/2/7 16/17/7 24/18/7 17/19/7
f 160/20/8 16/17/8 2/2/8 153/1/8
f 162/21/9 92/22/9 16/17/9 160/20/9
f 1/23/10 3/24/10 5/25/10 7/26/10 9/27/10 11/28/10 81/29/10 13/30/10 91/31/10 15/32/10
f 17/19/11 24/18/11 32/33/11 25/34/11
f 92/22/12 14/15/12 23/35/12 93/36/12
f 82/37/13 12/11/13 22/38/13 83/39/13
f 12/11/14 10/9/14 21/40/14 22/38/14
f 10/9/15 8/7/15 20/41/15 21/40/15
f 8/7/16 6/5/16 19/42/16 20/41/16
f 6/5/17 4/3/17 18/43/17 19/42/17
f 4/3/18 2/2/18 17/19/18 18/43/18
f 25/34/19 32/33/19 40/44/19 33/45/19
f 93/36/20 23/35/20 31/46/20 94/47/20
f 83/39/21 22/38/21 30/48/21 84/49/21
f 22/38/22 21/40/22 29/50/22 30/48/22
f 21/40/23 20/41/23 28/51/23 29/50/23
f 20/41/24 19/42/24 27/52/24 28/51/24
f 19/42/25 18/43/25 26/53/25 27/52/25
f 18/43/26 17/19/26 25/34/26 26/53/26
f 33/45/27 40/44/27 48/54/27 41/55/27
f 94/47/28 31/46/28 39/56/28 95/57/28
f 84/49/29 30/48/29 38/58/29 85/59/29
f 30/48/30 29/50/30 37/60/30 38/58/30
f 29/50/31 28/51/31 36/61/31 37/60/31
f 28/51/32 27/52/32 35/62/32 36/61/32
f 27/52/33 26/53/33 34/63/33 35/62/33
f 26/53/34 25/34/34 33/45/34 34/63/34
f 101/64/35 102/65/35 56/66/35 49/67/35
f 95/57/36 39/56/36 47/68/36 96/69/36
f 85/59/37 38/58/37 46/70/37 86/71/37
f 38/58/38 37/60/38 45/72/38 46/70/38
f 37/60/39 36/61/39 44/73/39 45/72/39
f 36/61/40 35/62/40 43/74/40 44/73/40
f 35/62/41 34/63/41 42/75/41 43/74/41
f 34/63/42 33/45/42 41/55/42 42/75/42
f 49/76/43 56/77/43 64/78/43 57/79/43
f 110/80/44 103/81/44 114/82/44 116/83/44
f 109/84/45 104/85/45 54/86/45 87/87/45
f 104/85/46 105/88/46 53/89/46 54/86/46
f 105/88/47 106/90/47 52/91/47 53/89/47
f 106/90/48 107/92/48 51/93/48 52/91/48
f 107/92/49 108/94/49 50/95/49 51/93/49
f 108/94/50 101/64/50 49/67/50 50/95/50
f 57/96/51 64/97/51 72/98/51 65/99/51
f 97/100/52 55/101/52 63/102/52 98/103/52
f 87/104/53 54/105/53 62/106/53 88/107/53
f 54/105/54 53/108/54 61/109/54 62/106/54
f 53/108/55 52/110/55 60/111/55 61/109/55
f 52/110/56 51/112/56 59/113/56 60/111/56
f 51/112/57 50/114/57 58/115/57 59/113/57
f 50/114/58 49/76/58 57/79/58 58/115/58
f 65/99/31 72/98/31 80/116/31 73/117/31
f 98/118/59 63/119/59 71/120/59 99/121/59
f 88/122/60 62/123/60 70/124/60 89/125/60
f 62/123/61 61/126/61 69/127/61 70/124/61
f 61/126/62 60/128/62 68/129/62 69/127/62
f 60/128/63 59/130/63 67/131/63 68/129/63
f 59/130/64 58/132/64 66/133/64 67/131/64
f 58/132/65 57/96/65 65/99/65 66/133/65
f 74/134/52 73/135/52 80/136/52 100/137/52 79/138/52 90/139/52 78/140/52 77/141/52 76/142/52 75/143/52
f 99/121/32 71/120/32 79/144/32 100/145/32
f 89/125/33 70/124/33 78/146/33 90/147/33
f 70/124/34 69/127/34 77/148/34 78/146/34
f 69/127/19 68/129/19 76/149/19 77/148/19
f 68/129/28 67/131/28 75/150/28 76/149/28
f 67/131/29 66/133/29 74/151/29 75/150/29
f 66/133/30 65/99/30 73/117/30 74/151/30
f 158/12/6 12/11/6 82/37/6 161/152/6
f 14/15/13 82/14/13 83/153/13 23/35/13
f 23/35/21 83/153/21 84/154/21 31/46/21
f 31/46/29 84/154/29 85/155/29 39/56/29
f 39/56/37 85/155/37 86/156/37 47/68/37
f 103/81/66 109/157/66 115/158/66 114/82/66
f 55/101/52 87/104/52 88/107/52 63/102/52
f 63/119/67 88/159/67 89/160/67 71/120/67
f 71/120/33 89/160/33 90/161/33 79/144/33
f 159/16/9 14/15/9 92/22/9 162/21/9
f 16/17/12 92/22/12 93/36/12 24/18/12
f 24/18/20 93/36/20 94/47/20 32/33/20
f 32/33/28 94/47/28 95/57/28 40/44/28
f 40/44/36 95/57/36 96/69/36 48/54/36
f 102/65/68 110/80/68 97/162/68 56/66/68
f 56/77/69 97/100/69 98/103/69 64/78/69
f 64/97/70 98/118/70 99/121/70 72/98/70
f 72/98/32 99/121/32 100/145/32 80/116/32
f 41/55/71 48/54/71 102/65/71 101/64/71
f 96/69/72 47/68/72 103/81/72 110/80/72
f 86/71/73 46/70/73 104/85/73 109/84/73
f 46/70/74 45/72/74 105/88/74 104/85/74
f 45/72/75 44/73/75 106/90/75 105/88/75
f 44/73/76 43/74/76 107/92/76 106/90/76
f 43/74/77 42/75/77 108/94/77 107/92/77
f 42/75/78 41/55/78 101/64/78 108/94/78
f 47/68/79 86/156/79 109/157/79 103/81/79
f 48/54/80 96/69/80 110/80/80 102/65/80
f 116/83/81 114/82/81 120/163/81 122/164/81
f 114/82/82 115/158/82 121/165/82 120/163/82
f 97/162/83 110/80/83 116/83/83 113/166/83
f 109/157/84 87/167/84 112/168/84 115/158/84
f 87/104/85 55/101/85 111/169/85 112/170/85
f 55/101/86 97/100/86 113/171/86 111/169/86
f 122/164/87 120/163/87 126/172/87 128/173/87
f 120/163/88 121/165/88 127/174/88 126/172/88
f 113/166/89 116/83/89 122/164/89 119/175/89
f 115/158/90 112/168/90 118/176/90 121/165/90
f 112/170/91 111/169/91 117/177/91 118/178/91
f 111/169/92 113/171/92 119/179/92 117/177/92
f 128/173/93 126/172/93 132/180/93 134/181/93
f 126/172/94 127/174/94 133/182/94 132/180/94
f 119/175/95 122/164/95 128/173/95 125/183/95
f 121/165/96 118/176/96 124/184/96 127/174/96
f 118/178/97 117/177/97 123/185/97 124/186/97
f 117/177/98 119/179/98 125/187/98 123/185/98
f 134/181/99 132/180/99 138/188/99 140/189/99
f 132/180/100 133/182/100 139/190/100 138/188/100
f 125/183/101 128/173/101 134/181/101 131/191/101
f 127/174/102 124/184/102 130/192/102 133/182/102
f 124/186/103 123/185/103 129/193/103 130/194/103
f 123/185/104 125/187/104 131/195/104 129/193/104
f 140/189/105 138/188/105 144/196/105 146/197/105
f 138/188/106 139/190/106 145/198/106 144/196/106
f 131/191/107 134/181/107 140/189/107 137/199/107
f 133/182/108 130/192/108 136/200/108 139/190/108
f 130/194/109 129/193/109 135/201/109 136/202/109
f 129/193/110 131/195/110 137/203/110 135/201/110
f 146/197/111 144/196/111 150/204/111 152/205/111
f 144/196/112 145/198/112 151/206/112 150/204/112
f 137/199/113 140/189/113 146/197/113 143/207/113
f 139/190/114 136/200/114 142/208/114 145/198/114
f 136/202/115 135/201/115 141/209/115 142/210/115
f 135/201/116 137/203/116 143/211/116 141/209/116
f 152/205/117 150/204/117 147/212/117 149/213/117
f 150/204/118 151/206/118 148/214/118 147/212/118
f 143/207/119 146/197/119 152/205/119 149/213/119
f 145/198/120 142/208/120 148/214/120 151/206/120
f 142/210/121 141/209/121 147/215/121 148/216/121
f 141/209/122 143/211/122 149/217/122 147/215/122
f 172/218/123 153/1/123 154/4/123 163/219/123
f 163/219/124 154/4/124 155/6/124 164/220/124
f 164/220/125 155/6/125 156/8/125 165/221/125
f 165/221/126 156/8/126 157/10/126 166/222/126
f 166/222/127 157/10/127 158/12/127 167/223/127
f 170/224/128 161/13/128 159/16/128 168/225/128
f 169/226/129 160/20/129 153/1/129 172/218/129
f 171/227/130 162/21/130 160/20/130 169/226/130
f 167/223/128 158/12/128 161/152/128 170/228/128
f 168/225/130 159/16/130 162/21/130 171/227/130
f 1/229/34 172/218/34 163/219/34 3/230/34
f 3/230/33 163/219/33 164/220/33 5/231/33
f 5/231/32 164/220/32 165/221/32 7/232/32
f 7/232/31 165/221/31 166/222/31 9/233/31
f 9/233/30 166/222/30 167/223/30 11/234/30
f 81/235/29 170/224/29 168/225/29 13/236/29
f 15/237/19 169/226/19 172/218/19 1/229/19
f 91/238/28 171/227/28 169/226/28 15/237/28
f 11/234/29 167/223/29 170/228/29 81/239/29
f 13/236/28 168/225/28 171/227/28 91/238/28
