# Blender v3.0.0 OBJ File: ''
# www.blender.org
mtllib bannerStand.mtl
o DesertBannerHolder_Cylinder.015
v 3.709395 0.712041 -0.266634
v 1.478890 0.712041 -0.266634
v 3.709395 0.764354 -0.268919
v 1.478890 0.764354 -0.268919
v 3.709395 0.802958 -0.233544
v 1.478890 0.802958 -0.233544
v 3.709395 0.805243 -0.181231
v 1.478890 0.805243 -0.181231
v 3.709395 0.678950 -0.175717
v 1.478890 0.678950 -0.175717
v 3.709395 0.676665 -0.228030
v 1.478890 0.676665 -0.228030
v 2.482617 0.690857 -0.228030
v 2.482617 0.764354 -0.268919
v 2.705667 0.764354 -0.268919
v 2.482617 0.802958 -0.233544
v 2.705667 0.802958 -0.233544
v 2.482617 0.805243 -0.181231
v 2.705667 0.805243 -0.181231
v 2.482617 0.678950 -0.175717
v 2.705667 0.678950 -0.175717
v 2.705667 0.690857 -0.228030
v 2.683453 0.649687 -0.413377
v 2.504832 0.649687 -0.413377
v 2.504832 0.685762 -0.440717
v 2.683453 0.685762 -0.440717
v 2.512656 0.543652 -0.486784
v 2.675628 0.543652 -0.486783
v 2.512656 0.543652 -0.408474
v 2.675628 0.543652 -0.408474
v 2.675629 -4.273419 -0.408474
v 2.512656 -4.273419 -0.408475
v 2.512656 -4.273419 -0.486785
v 2.675629 -4.273419 -0.486785
v 1.478890 0.739339 -0.241620
v 3.709395 0.739339 -0.241620
vt 0.668338 0.593433
vt 0.664433 0.593433
vt 0.664433 0.593069
vt 0.668338 0.593069
vt 0.664433 0.592558
vt 0.668338 0.592558
vt 0.682541 0.599615
vt 0.682541 0.598818
vt 0.684312 0.598818
vt 0.684312 0.599615
vt 0.684312 0.599793
vt 0.678169 0.594876
vt 0.679036 0.594876
vt 0.674264 0.594876
vt 0.674264 0.594481
vt 0.678169 0.594481
vt 0.682541 0.596235
vt 0.682541 0.595438
vt 0.685046 0.595438
vt 0.685046 0.597968
vt 0.682541 0.598765
vt 0.682541 0.597968
vt 0.682941 0.594876
vt 0.679036 0.594481
vt 0.682941 0.594481
vt 0.684312 0.600590
vt 0.682541 0.600590
vt 0.682541 0.599793
vt 0.673110 0.593069
vt 0.669205 0.593069
vt 0.669205 0.592558
vt 0.673110 0.592558
vt 0.673110 0.593433
vt 0.669205 0.593433
vt 0.662277 0.641307
vt 0.662095 0.641817
vt 0.653820 0.641043
vt 0.655516 0.640613
vt 0.651985 0.639600
vt 0.655730 0.639622
vt 0.668338 0.594755
vt 0.669205 0.594755
vt 0.669089 0.596096
vt 0.668455 0.596096
vt 0.649646 0.592558
vt 0.649829 0.593068
vt 0.643067 0.593762
vt 0.641371 0.593332
vt 0.678169 0.593002
vt 0.679036 0.593002
vt 0.639536 0.594775
vt 0.643281 0.594753
vt 0.650034 0.641795
vt 0.646289 0.641817
vt 0.678286 0.592558
vt 0.678919 0.592558
vt 0.682541 0.597345
vt 0.683174 0.597345
vt 0.683174 0.597915
vt 0.682541 0.597915
vt 0.669089 0.630960
vt 0.668455 0.630960
vt 0.658737 0.592558
vt 0.662483 0.592580
vt 0.674004 0.624352
vt 0.673370 0.624352
vt 0.673370 0.592558
vt 0.674004 0.592558
vt 0.677417 0.594798
vt 0.668506 0.593818
vt 0.670229 0.594494
vt 0.667313 0.593598
vt 0.677182 0.593818
vt 0.675989 0.593598
vn 0.0148 -0.3246 -0.9458
vn 0.0000 0.6756 -0.7373
vn 0.0000 0.9990 -0.0436
vn -0.0000 0.0436 0.9990
vn 0.0070 -0.9958 -0.0916
vn 0.0104 -0.7372 -0.6756
vn -0.0104 -0.7372 -0.6756
vn -0.0070 -0.9958 -0.0916
vn 0.0000 -0.9751 -0.2219
vn -0.0148 -0.3246 -0.9458
vn -0.9927 -0.0636 -0.1022
vn -0.9980 -0.0596 -0.0203
vn 0.0000 0.3084 -0.9513
vn 0.0000 0.9094 -0.4160
vn 0.9927 -0.0636 -0.1022
vn 0.0000 -0.9762 0.2168
vn 1.0000 0.0000 0.0000
vn 0.0000 0.0462 0.9989
vn 0.9980 -0.0596 -0.0203
vn 0.0000 -1.0000 -0.0000
vn 0.0000 0.0000 -1.0000
vn -1.0000 -0.0000 -0.0000
vn -0.0000 -0.0000 1.0000
usemtl MainMaterial.001
s 1
f 13/1/1 2/2/1 4/3/1 14/4/1
f 14/4/2 4/3/2 6/5/2 16/6/2
f 16/7/3 6/8/3 8/9/3 18/10/3
f 19/11/4 18/10/4 20/12/4 21/13/4
f 20/12/5 10/14/5 12/15/5 13/16/5
f 13/17/6 12/18/6 2/19/6
f 11/20/7 22/21/7 1/22/7
f 9/23/8 21/13/8 22/24/8 11/25/8
f 21/13/9 20/12/9 13/16/9 22/24/9
f 7/26/4 19/11/4 21/13/4 9/23/4
f 8/9/4 10/14/4 20/12/4 18/10/4
f 5/27/3 17/28/3 19/11/3 7/26/3
f 17/28/3 16/7/3 18/10/3 19/11/3
f 3/29/2 15/30/2 17/31/2 5/32/2
f 15/30/2 14/4/2 16/6/2 17/31/2
f 1/33/10 22/34/10 15/30/10 3/29/10
f 13/35/11 14/36/11 25/37/11 24/38/11
f 24/38/12 25/37/12 27/39/12 29/40/12
f 25/41/13 26/42/13 28/43/13 27/44/13
f 14/4/14 15/30/14 26/42/14 25/41/14
f 15/45/15 22/46/15 23/47/15 26/48/15
f 22/24/16 13/16/16 24/49/16 23/50/16
f 28/51/17 30/52/17 31/53/17 34/54/17
f 23/50/18 24/49/18 29/55/18 30/56/18
f 26/48/19 23/47/19 30/52/19 28/51/19
f 31/57/20 32/58/20 33/59/20 34/60/20
f 27/44/21 28/43/21 34/61/21 33/62/21
f 29/40/22 27/39/22 33/63/22 32/64/22
f 30/65/23 29/66/23 32/67/23 31/68/23
f 36/69/17 7/26/17 9/23/17
f 12/15/22 10/14/22 35/70/22
f 5/27/17 7/26/17 36/69/17
f 6/5/22 4/3/22 35/71/22
f 4/3/22 2/19/22 35/72/22
f 8/9/22 35/70/22 10/14/22
f 2/19/22 12/15/22 35/72/22
f 8/9/22 6/5/22 35/71/22
f 11/20/17 1/22/17 36/73/17
f 1/22/17 3/29/17 36/74/17
f 9/23/17 11/20/17 36/73/17
f 3/29/17 5/27/17 36/74/17
