# Blender v3.0.0 OBJ File: 'ContainersUpload.blend'
# www.blender.org
mtllib bigUrn.mtl
o Jug2_2_Cylinder.016
v -3.235542 0.002655 -0.666181
v -3.282397 0.002655 -0.713036
v -3.282397 0.002655 -0.779300
v -3.235542 0.002655 -0.826155
v -3.243758 0.259341 -0.646346
v -3.302232 0.259341 -0.704820
v -3.302232 0.259341 -0.787515
v -3.243758 0.259341 -0.845990
v -3.236541 0.287454 -0.663768
v -3.284810 0.287454 -0.712037
v -3.284810 0.287454 -0.780299
v -3.236541 0.287454 -0.828568
v -3.235015 0.338791 -0.667453
v -3.281125 0.338791 -0.713563
v -3.281125 0.338791 -0.778773
v -3.235015 0.338791 -0.824883
v -3.239815 0.360793 -0.655864
v -3.292715 0.360793 -0.708763
v -3.292715 0.360793 -0.783573
v -3.239815 0.360793 -0.836472
v -3.239815 0.387684 -0.655864
v -3.292715 0.387684 -0.708763
v -3.292715 0.387684 -0.783573
v -3.239815 0.387684 -0.836472
v -3.298059 0.273397 -0.785787
v -3.298059 0.273397 -0.706549
v -3.242029 0.273397 -0.841817
v -3.242029 0.273397 -0.650519
v -3.234701 0.387684 -0.668210
v -3.280368 0.387684 -0.713877
v -3.280368 0.387684 -0.778459
v -3.234701 0.387684 -0.824126
v -3.231796 0.162039 -0.675225
v -3.273354 0.162039 -0.716782
v -3.273354 0.162039 -0.775554
v -3.231796 0.162039 -0.817111
v -3.273354 0.162039 -0.755963
v -3.292715 0.360793 -0.733700
v -3.273354 0.162039 -0.736373
v -3.281125 0.338791 -0.757036
v -3.280368 0.387684 -0.756932
v -3.281125 0.338791 -0.735300
v -3.280368 0.387684 -0.735404
v -3.284810 0.287454 -0.757545
v -3.298059 0.273397 -0.732962
v -3.284810 0.287454 -0.734791
v -3.298059 0.273397 -0.759374
v -3.302232 0.259341 -0.759950
v -3.302232 0.259341 -0.732385
v -3.292715 0.387684 -0.758636
v -3.292715 0.387684 -0.733700
v -3.282397 0.002655 -0.757212
v -3.292715 0.360793 -0.758636
v -3.282397 0.002655 -0.735124
v -3.292715 0.382978 -0.783573
v -3.292715 0.382978 -0.708763
v -3.239815 0.382978 -0.836472
v -3.239815 0.382978 -0.655864
v -3.292715 0.382978 -0.733700
v -3.292715 0.382978 -0.758636
v -3.322488 0.363399 -0.733700
v -3.322488 0.363399 -0.758636
v -3.326169 0.379194 -0.733700
v -3.326169 0.379194 -0.758636
v -3.345883 0.334810 -0.733700
v -3.345883 0.334810 -0.758636
v -3.358814 0.339113 -0.733700
v -3.358814 0.339113 -0.758636
v -3.338217 0.295541 -0.732962
v -3.338217 0.295541 -0.759374
v -3.352112 0.290857 -0.759950
v -3.352112 0.290857 -0.732385
v -3.169279 0.002655 -0.666181
v -3.122423 0.002655 -0.713036
v -3.122423 0.002655 -0.779300
v -3.169279 0.002655 -0.826155
v -3.161063 0.259341 -0.646346
v -3.102589 0.259341 -0.704820
v -3.102589 0.259341 -0.787515
v -3.161063 0.259341 -0.845990
v -3.168279 0.287454 -0.663768
v -3.120011 0.287454 -0.712037
v -3.120011 0.287454 -0.780299
v -3.168279 0.287454 -0.828568
v -3.169806 0.338791 -0.667453
v -3.123695 0.338791 -0.713563
v -3.123695 0.338791 -0.778773
v -3.169806 0.338791 -0.824883
v -3.165005 0.360793 -0.655864
v -3.112106 0.360793 -0.708763
v -3.112106 0.360793 -0.783573
v -3.165005 0.360793 -0.836472
v -3.165005 0.387684 -0.655864
v -3.112106 0.387684 -0.708763
v -3.112106 0.387684 -0.783573
v -3.165005 0.387684 -0.836472
v -3.106761 0.273397 -0.785787
v -3.106761 0.273397 -0.706549
v -3.162791 0.273397 -0.841817
v -3.162791 0.273397 -0.650519
v -3.170119 0.387684 -0.668210
v -3.124452 0.387684 -0.713877
v -3.124452 0.387684 -0.778459
v -3.170119 0.387684 -0.824126
v -3.173024 0.162039 -0.675225
v -3.131467 0.162039 -0.716782
v -3.131467 0.162039 -0.775554
v -3.173024 0.162039 -0.817111
v -3.131467 0.162039 -0.755963
v -3.112106 0.360793 -0.733700
v -3.131467 0.162039 -0.736373
v -3.123695 0.338791 -0.757036
v -3.124452 0.387684 -0.756932
v -3.123695 0.338791 -0.735300
v -3.124452 0.387684 -0.735404
v -3.120011 0.287454 -0.757545
v -3.106761 0.273397 -0.732962
v -3.120011 0.287454 -0.734791
v -3.106761 0.273397 -0.759374
v -3.102589 0.259341 -0.759950
v -3.102589 0.259341 -0.732385
v -3.112106 0.387684 -0.758636
v -3.112106 0.387684 -0.733700
v -3.122423 0.002655 -0.757212
v -3.112106 0.360793 -0.758636
v -3.122423 0.002655 -0.735124
v -3.112106 0.382978 -0.783573
v -3.112106 0.382978 -0.708763
v -3.165005 0.382978 -0.836472
v -3.165005 0.382978 -0.655864
v -3.112106 0.382978 -0.733700
v -3.112106 0.382978 -0.758636
v -3.082333 0.363399 -0.733700
v -3.082333 0.363399 -0.758636
v -3.078651 0.379194 -0.733700
v -3.078651 0.379194 -0.758636
v -3.058937 0.334810 -0.733700
v -3.058937 0.334810 -0.758636
v -3.046006 0.339113 -0.733700
v -3.046006 0.339113 -0.758636
v -3.066603 0.295541 -0.732962
v -3.066603 0.295541 -0.759374
v -3.052709 0.290857 -0.759950
v -3.052709 0.290857 -0.732385
vt 0.625790 0.466772
vt 0.452657 0.464541
vt 0.454009 0.405026
vt 0.625915 0.398397
vt 0.388427 0.234088
vt 0.447483 0.222374
vt 0.450489 0.271540
vt 0.393830 0.279251
vt 0.068134 -0.389479
vt 0.230807 -0.393934
vt 0.256692 0.193808
vt 0.078509 0.191120
vt 0.077437 0.272356
vt -0.102472 0.276956
vt -0.102792 0.225345
vt 0.078602 0.224998
vt 0.364511 0.515105
vt 0.365153 0.526190
vt 0.306416 0.529594
vt 0.305774 0.518510
vt 0.309398 0.280414
vt 0.302129 0.406032
vt 0.244846 0.406649
vt 0.252732 0.271798
vt 0.255671 0.226159
vt 0.072254 0.408788
vt -0.101484 0.412891
vt 0.450386 0.516376
vt 0.449879 0.527404
vt 0.391377 0.523095
vt 0.392190 0.512055
vt 0.301556 0.465631
vt 0.245353 0.471576
vt 0.071872 0.471523
vt -0.101541 0.470755
vt 0.353939 0.406542
vt 0.358757 0.463788
vt 0.247648 0.532970
vt 0.247239 0.521964
vt 0.072839 0.535448
vt -0.101709 0.535920
vt -0.101665 0.524954
vt 0.072747 0.524465
vt 0.396563 0.459498
vt 0.399128 0.402439
vt 0.318005 0.200361
vt 0.313048 0.235899
vt -0.102989 0.190864
vt 0.362713 0.286539
vt 0.920979 0.914028
vt 0.938633 0.890717
vt 0.974347 0.926431
vt 0.962349 0.955398
vt 1.125870 0.926431
vt 1.233013 0.819289
vt 1.261980 0.831287
vt 1.137869 0.955398
vt -0.309145 1.070623
vt -0.284161 0.541549
vt -0.238258 0.543914
vt -0.258703 1.073222
vt -0.100415 0.547462
vt 0.037474 0.547462
vt 0.044292 1.077121
vt -0.107231 1.077121
vt 0.624594 0.263080
vt 0.282067 -0.397562
vt 0.624022 0.220562
vt 0.445560 0.189538
vt 0.382873 0.197561
vt 0.625430 0.518977
vt 0.623671 0.187522
vt 0.333326 -0.401191
vt 0.381976 0.195833
vt 0.679051 0.535205
vt 0.816894 0.531656
vt 0.837341 1.060965
vt 0.685868 1.064865
vt 0.466114 -0.397907
vt 0.414779 -0.401191
vt 0.867205 0.667766
vt 0.867205 0.819289
vt 0.838238 0.831287
vt 0.838238 0.655767
vt -0.359585 1.068024
vt -0.330063 0.539184
vt 0.630393 -0.396138
vt -0.410027 1.065425
vt -0.375965 0.536819
vt 0.879608 0.872657
vt 0.902919 0.855003
vt 0.372190 0.243851
vt 1.232724 0.356000
vt 1.180432 0.350437
vt 1.187147 0.282771
vt 1.240235 0.285400
vt 0.794301 -0.395122
vt 0.798950 0.186498
vt 0.625326 0.530046
vt 1.181911 0.164246
vt 1.239228 0.165857
vt 1.139503 0.344024
vt 1.094168 0.344675
vt 1.080662 0.277657
vt 1.148057 0.270446
vt 1.058227 0.353710
vt 1.044639 0.293700
vt 1.077162 0.168180
vt 1.149151 0.163961
vt 1.045114 0.167667
vt 1.094149 -0.050233
vt 1.079399 0.054967
vt 1.049338 0.061676
vt 1.070050 -0.060615
vt 1.139636 -0.050676
vt 1.150085 0.056685
vt 1.225224 -0.067401
vt 1.240235 0.060580
vt 1.178778 0.064061
vt 1.165433 -0.060388
vt 0.798419 0.220056
vt 0.798820 0.266815
vt 0.801878 0.403203
vt 0.802355 0.466503
vt 0.801927 0.519703
vt 0.801983 0.530759
vt 0.962349 0.531656
vt 0.974347 0.560623
vt 0.534345 1.064865
vt 0.541162 0.535205
vt 0.838238 1.221693
vt 0.838238 1.066226
vt 0.948169 0.956295
vt 1.103635 0.956295
vt 1.140279 0.992939
vt 1.176923 1.029583
vt 1.213566 1.066227
vt 1.213566 1.221693
vt 1.103635 1.331624
vt 0.948169 1.331624
vt 0.911525 1.294980
vt 0.874882 1.258336
vt 0.972566 0.406305
vt 0.974193 0.465397
vt 1.038261 0.234122
vt 1.032888 0.279890
vt 0.975785 0.272343
vt 0.978589 0.222425
vt -0.094716 -0.388621
vt -0.284275 0.193598
vt -0.257300 -0.393655
vt -0.392527 0.516532
vt -0.333933 0.519748
vt -0.334540 0.530805
vt -0.393134 0.527589
vt -0.337709 0.281036
vt -0.280634 0.272673
vt -0.273152 0.408208
vt -0.330514 0.407420
vt -0.283300 0.226350
vt 0.976508 0.517157
vt 1.034559 0.512770
vt 1.035384 0.523784
vt 0.977020 0.528159
vt -0.273782 0.472769
vt -0.329898 0.466990
vt -0.382495 0.407940
vt -0.387222 0.465257
vt -0.275541 0.523019
vt -0.275915 0.533993
vt 1.027457 0.403581
vt 1.030113 0.460324
vt -0.346096 0.200143
vt -0.341251 0.236037
vt -0.391455 0.287149
vt 1.220610 0.614397
vt 1.261980 0.655767
vt 1.233013 0.667766
vt 1.197299 0.632052
vt 0.246205 1.070622
vt 0.195764 1.073221
vt 0.175317 0.543913
vt 0.221219 0.541548
vt -0.308528 -0.397423
vt 0.980545 0.189138
vt 1.043742 0.197207
vt -0.359755 -0.401191
vt -0.410027 0.195441
vt 0.382873 1.060965
vt 0.403319 0.531656
vt 0.958297 -0.397715
vt 1.009599 -0.401190
vt 1.137869 0.531656
vt 1.125870 0.560623
vt 0.296645 1.068023
vt 0.267121 0.539183
vt 0.347086 1.065424
vt 0.313024 0.536817
vt 1.179239 0.573027
vt 1.161585 0.596337
vt -0.400992 0.244004
vt 1.221708 1.379665
vt 1.214463 1.309036
vt 1.267561 1.306608
vt 1.274020 1.374299
vt 1.215921 1.189498
vt 1.273243 1.188104
vt 1.314974 1.368041
vt 1.306697 1.294431
vt 1.374063 1.301896
vt 1.360306 1.368863
vt 1.410027 1.318074
vt 1.396212 1.378033
vt 1.306005 1.187943
vt 1.377977 1.192432
vt 1.410027 1.192041
vt 1.361814 0.973957
vt 1.385952 0.963666
vt 1.406203 1.086035
vt 1.376167 1.079212
vt 1.316329 0.973343
vt 1.305475 1.080663
vt 1.230805 0.956295
vt 1.290569 0.963534
vt 1.276755 1.087931
vt 1.215312 1.084218
vt 1.044639 -0.303689
vt 1.077139 -0.336189
vt 1.109640 -0.368690
vt 1.142141 -0.401191
vt 1.280030 -0.401191
vt 1.377532 -0.303689
vt 1.377532 -0.165800
vt 1.345031 -0.133299
vt 1.312530 -0.100799
vt 1.280030 -0.068298
vt 1.142141 -0.068298
vt 1.044639 -0.165800
vn 0.6256 0.4660 0.6256
vn 0.7277 -0.6859 0.0000
vn 0.7050 0.0770 -0.7050
vn 0.0000 -0.6859 -0.7277
vn 1.0000 0.0000 0.0000
vn 0.9974 -0.0716 0.0000
vn 0.5146 -0.6859 -0.5145
vn 0.0000 -0.0716 -0.9974
vn 0.8848 0.4660 0.0000
vn 0.7053 -0.0716 -0.7053
vn 0.0000 0.4661 -0.8848
vn 0.8848 0.4661 0.0000
vn 0.6256 0.4660 -0.6256
vn 0.0000 0.0000 -1.0000
vn 0.9587 -0.2846 0.0000
vn 0.7071 0.0000 -0.7071
vn 0.0000 -0.2846 -0.9587
vn 0.0000 -1.0000 0.0000
vn 0.6779 -0.2846 -0.6779
vn -0.9995 -0.0311 0.0000
vn 0.0000 -0.0311 0.9995
vn 0.7053 -0.0716 0.7053
vn -0.7068 -0.0311 0.7068
vn 0.9970 0.0770 0.0000
vn 0.5146 -0.6859 0.5145
vn 0.7071 0.0000 0.7071
vn 0.6779 -0.2846 0.6779
vn -0.7068 -0.0311 -0.7068
vn 0.7050 0.0770 0.7050
vn 0.1124 -0.9937 0.0000
vn 0.0000 0.0770 0.9970
vn 0.7754 -0.6315 0.0000
vn 0.0872 0.9962 0.0000
vn 0.0000 0.0000 1.0000
vn -0.7739 0.6333 0.0000
vn -0.0232 -0.0390 0.9990
vn -0.4829 -0.8757 0.0000
vn 0.5342 0.8454 0.0000
vn 0.9815 0.1916 0.0000
vn 0.0211 0.0269 -0.9994
vn -0.9905 -0.1376 0.0000
vn 0.0211 0.0269 0.9994
vn -0.0232 -0.0390 -0.9990
vn 0.0000 -0.6859 0.7277
vn 0.0000 -0.0716 0.9974
vn 0.0000 0.4661 0.8848
vn 0.0000 -0.2846 0.9587
vn 0.0000 -0.0311 -0.9995
vn 0.0000 1.0000 0.0000
vn -0.6256 0.4660 0.6256
vn -0.7277 -0.6859 0.0000
vn -0.7050 0.0770 -0.7050
vn -1.0000 0.0000 0.0000
vn -0.9974 -0.0716 0.0000
vn -0.5146 -0.6859 -0.5146
vn -0.8848 0.4661 0.0000
vn -0.7053 -0.0716 -0.7053
vn -0.8848 0.4660 0.0000
vn -0.6256 0.4660 -0.6256
vn -0.9587 -0.2846 0.0000
vn -0.7071 0.0000 -0.7071
vn -0.6779 -0.2846 -0.6779
vn 0.9995 -0.0311 0.0000
vn -0.7053 -0.0716 0.7053
vn 0.7068 -0.0311 0.7068
vn -0.9970 0.0770 0.0000
vn -0.5146 -0.6859 0.5146
vn -0.7071 0.0000 0.7071
vn -0.6779 -0.2846 0.6779
vn 0.7068 -0.0311 -0.7068
vn -0.7050 0.0770 0.7050
vn -0.1124 -0.9937 0.0000
vn -0.7754 -0.6315 0.0000
vn -0.0872 0.9962 0.0000
vn 0.7739 0.6333 0.0000
vn 0.0232 -0.0390 0.9990
vn 0.4829 -0.8757 0.0000
vn -0.5342 0.8454 0.0000
vn -0.9815 0.1916 0.0000
vn -0.0211 0.0269 -0.9994
vn 0.9905 -0.1376 0.0000
vn -0.0211 0.0269 0.9994
vn 0.0232 -0.0390 -0.9990
vn 0.0000 0.0770 -0.9970
usemtl Pottery
s off
f 20/1/1 19/2/1 15/3/1 16/4/1
f 47/5/2 25/6/2 11/7/2 44/8/2
f 1/9/3 2/10/3 6/11/3 5/12/3
f 9/13/4 81/14/4 100/15/4 28/16/4
f 60/17/5 50/18/5 51/19/5 59/20/5
f 46/21/6 42/22/6 14/23/6 10/24/6
f 28/16/7 26/25/7 10/24/7 9/13/7
f 13/26/8 85/27/8 81/14/8 9/13/8
f 55/28/5 23/29/5 50/30/5 60/31/5
f 42/22/9 38/32/9 18/33/9 14/23/9
f 9/13/10 10/24/10 14/23/10 13/26/10
f 17/34/11 89/35/11 85/27/11 13/26/11
f 40/36/12 53/37/12 38/32/12 42/22/12
f 59/20/5 51/19/5 22/38/5 56/39/5
f 13/26/13 14/23/13 18/33/13 17/34/13
f 21/40/14 93/41/14 130/42/14 58/43/14
f 15/3/9 19/2/9 53/44/9 40/45/9
f 49/46/15 45/47/15 26/25/15 6/11/15
f 58/43/16 56/39/16 22/38/16 21/40/16
f 28/16/17 100/15/17 77/48/17 5/12/17
f 44/49/6 40/36/6 42/22/6 46/21/6
f 51/50/18 43/51/18 30/52/18 22/53/18
f 5/12/19 6/11/19 26/25/19 28/16/19
f 29/54/18 101/55/18 93/56/18 21/57/18
f 43/58/20 39/59/20 34/60/20 30/61/20
f 21/57/18 22/53/18 30/52/18 29/54/18
f 33/62/21 105/63/21 101/64/21 29/65/21
f 16/4/22 15/3/22 11/7/22 12/66/22
f 29/65/23 30/61/23 34/60/23 33/62/23
f 58/43/14 130/42/14 89/35/14 17/34/14
f 54/67/24 49/46/24 6/11/24 2/10/24
f 25/6/25 27/68/25 12/66/25 11/7/25
f 7/69/15 25/6/15 47/5/15 48/70/15
f 57/71/26 55/28/26 19/2/26 20/1/26
f 27/68/27 25/6/27 7/69/27 8/72/27
f 52/73/24 48/74/24 49/46/24 54/67/24
f 36/75/28 35/76/28 31/77/28 32/78/28
f 3/79/24 7/69/24 48/70/24 52/80/24
f 32/81/18 31/82/18 23/83/18 24/84/18
f 41/85/20 37/86/20 39/59/20 43/58/20
f 8/72/29 7/69/29 3/79/29 4/87/29
f 31/88/20 35/89/20 37/86/20 41/85/20
f 11/7/6 15/3/6 40/45/6 44/8/6
f 50/90/18 41/91/18 43/51/18 51/50/18
f 26/25/2 45/47/2 46/21/2 10/24/2
f 45/47/2 47/92/2 44/49/2 46/21/2
f 23/83/18 31/82/18 41/91/18 50/90/18
f 60/93/30 59/94/30 63/95/30 64/96/30
f 19/2/5 55/28/5 60/31/5 53/44/5
f 38/32/5 59/20/5 56/39/5 18/33/5
f 17/34/16 18/33/16 56/39/16 58/43/16
f 76/97/31 80/98/31 8/72/31 4/87/31
f 24/99/26 23/29/26 55/28/26 57/71/26
f 64/96/32 63/95/32 67/100/32 68/101/32
f 38/102/33 53/103/33 62/104/33 61/105/33
f 53/103/34 60/106/34 64/107/34 62/104/34
f 59/94/14 38/102/14 61/105/14 63/95/14
f 61/105/35 62/104/35 66/108/35 65/109/35
f 62/104/34 64/107/34 68/110/34 66/108/34
f 63/95/14 61/105/14 65/109/14 67/100/14
f 47/111/36 70/112/36 71/113/36 48/114/36
f 45/115/37 69/116/37 70/112/37 47/111/37
f 48/117/38 71/118/38 72/119/38 49/120/38
f 65/109/39 69/116/39 70/112/39 66/108/39
f 66/108/40 70/112/40 71/113/40 68/110/40
f 68/101/41 71/118/41 72/119/41 67/100/41
f 67/100/42 72/119/42 69/116/42 65/109/42
f 49/120/43 72/119/43 69/116/43 45/115/43
f 99/121/44 84/122/44 12/66/44 27/68/44
f 84/122/45 88/123/45 16/4/45 12/66/45
f 88/123/46 92/124/46 20/1/46 16/4/46
f 129/125/34 96/126/34 24/99/34 57/71/34
f 80/98/47 99/121/47 27/68/47 8/72/47
f 96/127/18 104/128/18 32/81/18 24/84/18
f 104/129/48 108/130/48 36/75/48 32/78/48
f 92/124/34 129/125/34 57/71/34 20/1/34
f 2/131/49 1/132/49 73/133/49 74/134/49 126/135/49 124/136/49 75/137/49 76/138/49 4/139/49 3/140/49 52/141/49 54/142/49
f 92/124/50 88/123/50 87/143/50 91/144/50
f 119/145/51 116/146/51 83/147/51 97/148/51
f 73/149/52 77/48/52 78/150/52 74/151/52
f 132/152/53 131/153/53 123/154/53 122/155/53
f 118/156/54 82/157/54 86/158/54 114/159/54
f 100/15/55 81/14/55 82/157/55 98/160/55
f 127/161/53 132/162/53 122/163/53 95/164/53
f 114/159/56 86/158/56 90/165/56 110/166/56
f 81/14/57 85/27/57 86/158/57 82/157/57
f 112/167/58 114/159/58 110/166/58 125/168/58
f 131/153/53 128/169/53 94/170/53 123/154/53
f 85/27/59 89/35/59 90/165/59 86/158/59
f 87/143/56 112/171/56 125/172/56 91/144/56
f 121/173/60 78/150/60 98/160/60 117/174/60
f 130/42/61 93/41/61 94/170/61 128/169/61
f 116/175/54 118/156/54 114/159/54 112/167/54
f 123/176/18 94/177/18 102/178/18 115/179/18
f 77/48/62 100/15/62 98/160/62 78/150/62
f 115/180/63 102/181/63 106/182/63 111/183/63
f 93/56/18 101/55/18 102/178/18 94/177/18
f 88/123/64 84/122/64 83/147/64 87/143/64
f 101/64/65 105/63/65 106/182/65 102/181/65
f 126/184/66 74/151/66 78/150/66 121/173/66
f 97/148/67 83/147/67 84/122/67 99/121/67
f 79/185/60 120/186/60 119/145/60 97/148/60
f 129/125/68 92/124/68 91/144/68 127/161/68
f 99/121/69 80/98/69 79/185/69 97/148/69
f 124/187/66 126/184/66 121/173/66 120/188/66
f 108/130/70 104/129/70 103/189/70 107/190/70
f 75/191/66 124/192/66 120/186/66 79/185/66
f 104/128/18 96/127/18 95/193/18 103/194/18
f 113/195/63 115/180/63 111/183/63 109/196/63
f 80/98/71 76/97/71 75/191/71 79/185/71
f 103/197/63 113/195/63 109/196/63 107/198/63
f 83/147/54 116/146/54 112/171/54 87/143/54
f 122/199/18 123/176/18 115/179/18 113/200/18
f 98/160/51 82/157/51 118/156/51 117/174/51
f 117/174/51 118/156/51 116/175/51 119/201/51
f 95/193/18 122/199/18 113/200/18 103/194/18
f 132/202/72 136/203/72 135/204/72 131/205/72
f 91/144/53 125/172/53 132/162/53 127/161/53
f 110/166/53 90/165/53 128/169/53 131/153/53
f 89/35/61 130/42/61 128/169/61 90/165/61
f 96/126/68 129/125/68 127/161/68 95/164/68
f 136/203/73 140/206/73 139/207/73 135/204/73
f 110/208/74 133/209/74 134/210/74 125/211/74
f 125/211/34 134/210/34 136/212/34 132/213/34
f 131/205/14 135/204/14 133/209/14 110/208/14
f 133/209/75 137/214/75 138/215/75 134/210/75
f 134/210/34 138/215/34 140/216/34 136/212/34
f 135/204/14 139/207/14 137/214/14 133/209/14
f 119/217/76 120/218/76 143/219/76 142/220/76
f 117/221/77 119/217/77 142/220/77 141/222/77
f 120/223/78 121/224/78 144/225/78 143/226/78
f 137/214/79 138/215/79 142/220/79 141/222/79
f 138/215/80 140/216/80 143/219/80 142/220/80
f 140/206/81 139/207/81 144/225/81 143/226/81
f 139/207/82 137/214/82 141/222/82 144/225/82
f 121/224/83 117/221/83 141/222/83 144/225/83
f 34/227/18 39/228/18 37/229/18 35/230/18 36/231/18 108/232/18 107/233/18 109/234/18 111/235/18 106/236/18 105/237/18 33/238/18
f 5/12/84 77/48/84 73/149/84 1/9/84
