# Blender v3.0.0 OBJ File: ''
# www.blender.org
mtllib flag.mtl
o DesertFlag_Cube.092
v -0.077373 2.361092 0.065119
v -0.057542 0.001092 0.044048
v -0.077373 2.361092 -0.097024
v -0.057542 0.001092 -0.075952
v 0.084771 2.361092 0.065119
v 0.062458 0.001092 0.044048
v 0.084770 2.361092 -0.097024
v 0.062457 0.001092 -0.075952
v -0.077372 1.381092 0.065119
v -0.077372 1.381092 -0.097024
v 0.084771 1.381092 -0.097024
v 0.084771 1.381092 0.065119
v -0.077372 1.871092 -0.097024
v 0.084771 1.871092 -0.097024
v 0.084771 1.871092 0.065119
v -0.077372 1.871092 0.065119
v -0.027764 2.561092 -0.046173
v -0.027764 2.561092 0.014268
v 0.032677 2.561092 -0.046173
v 0.032677 2.561092 0.014268
v 1.429744 1.870845 -0.060746
v 1.429865 1.870851 0.024800
v 0.116092 1.871092 0.027395
v 0.116092 1.381092 0.027395
v 0.116092 2.361092 -0.059301
v 0.116092 2.361092 0.027395
v 0.116092 1.871092 -0.059301
v 0.116092 1.381092 -0.059301
v -0.057543 1.364425 0.044048
v -0.057543 1.364425 -0.075953
v 0.062457 1.364425 -0.075953
v 0.062457 1.364425 0.044047
v -0.064282 2.374448 0.050785
v 0.069194 2.374448 0.050785
v 0.069194 2.374448 -0.082691
v -0.064282 2.374448 -0.082691
v 0.289492 1.871082 0.026840
v 0.502305 1.871041 0.026396
v 0.289470 2.361074 -0.059577
v 0.502266 2.327480 -0.059733
v 0.289372 1.871074 -0.059568
v 0.502184 1.871031 -0.059724
v 0.289296 1.381078 -0.059559
v 0.502101 1.414594 -0.059716
v 0.502218 1.414592 0.026405
v 0.289421 1.381080 0.026850
v 0.502387 2.327483 0.026388
v 0.289565 2.361080 0.026831
v -0.077372 1.707758 0.065119
v -0.077372 1.544425 0.065119
v -0.077372 1.544425 -0.097024
v -0.077372 1.707758 -0.097024
v 0.084771 1.544425 -0.097024
v 0.084771 1.707758 -0.097024
v 0.084771 1.544425 0.065119
v 0.084771 1.707758 0.065119
v 0.860825 1.544295 -0.059937
v 1.139493 1.707571 -0.060333
v 0.860946 1.544297 0.025609
v 1.139614 1.707575 0.025212
v 0.115967 1.544442 -0.059461
v 0.116000 1.707775 -0.059464
v 0.116092 1.707759 0.027395
v 0.116092 1.544425 0.027395
v 0.289339 1.707740 -0.059565
v 0.289317 1.544410 -0.059562
v 0.502152 1.707699 -0.059721
v 0.502121 1.544366 -0.059718
v 0.289428 1.544409 0.026847
v 0.289466 1.707745 0.026844
v 0.502240 1.544366 0.026402
v 0.502276 1.707706 0.026399
v -0.077372 2.034426 -0.097024
v -0.077373 2.197759 -0.097024
v 0.084771 2.034425 -0.097024
v 0.084771 2.197759 -0.097024
v 0.084771 2.034425 0.065119
v 0.084771 2.197759 0.065119
v -0.077373 2.197759 0.065119
v -0.077372 2.034426 0.065119
v 1.139558 2.034239 -0.060339
v 0.860953 2.197630 -0.059949
v 1.139678 2.034243 0.025206
v 0.861073 2.197632 0.025596
v 0.116092 2.197759 0.027395
v 0.116092 2.034425 0.027395
v 0.116065 2.034442 -0.059470
v 0.116098 2.197776 -0.059473
v 0.289515 2.034414 0.026837
v 0.289540 2.197747 0.026834
v 0.502334 2.034374 0.026393
v 0.502367 2.197703 0.026390
v 0.289437 2.197741 -0.059574
v 0.289405 2.034407 -0.059571
v 0.502247 2.197701 -0.059730
v 0.502217 2.034365 -0.059727
v 0.861100 2.034303 0.025725
v 0.861094 1.870972 0.025779
v 0.861039 1.707634 0.025731
v 1.139691 1.870915 0.025299
v 0.860981 2.034294 -0.060072
v 0.860973 1.870959 -0.060120
v 0.860917 1.707628 -0.060066
v 1.139570 1.870903 -0.060426
vt 0.100700 0.332532
vt 0.103899 0.333059
vt 0.103011 0.335752
vt 0.100418 0.335581
vt 0.103676 0.338219
vt 0.100607 0.338760
vt 0.103688 0.351508
vt 0.107198 0.351508
vt 0.107198 0.354992
vt 0.103688 0.354992
vt 0.681326 0.616566
vt 0.687320 0.620770
vt 0.685856 0.622535
vt 0.679259 0.621170
vt 0.659255 0.619258
vt 0.654638 0.619258
vt 0.654638 0.614641
vt 0.659255 0.614641
vt 0.085562 0.351987
vt 0.086140 0.351508
vt 0.086140 0.354992
vt 0.085562 0.354566
vt 0.084252 0.337768
vt 0.084728 0.338169
vt 0.081793 0.339293
vt 0.082005 0.338567
vt 0.084659 0.335806
vt 0.085102 0.335737
vt 0.083673 0.334026
vt 0.083884 0.333501
vt 0.093159 0.351508
vt 0.096669 0.351508
vt 0.096669 0.354992
vt 0.093159 0.354992
vt 0.065997 0.310437
vt 0.069506 0.312430
vt 0.069506 0.312879
vt 0.090724 0.335614
vt 0.094002 0.335591
vt 0.093982 0.338899
vt 0.090669 0.338836
vt 0.090609 0.332282
vt 0.094016 0.332263
vt 0.688962 0.622697
vt 0.687035 0.624339
vt 0.684951 0.613055
vt 0.688962 0.619181
vt 0.679875 0.627323
vt 0.688371 0.626358
vt 0.682826 0.631782
vt 0.080037 0.353240
vt 0.084073 0.353240
vt 0.084073 0.355079
vt 0.080037 0.355079
vt 0.067928 0.353240
vt 0.071964 0.353240
vt 0.071964 0.355079
vt 0.067928 0.355079
vt 0.073016 0.344189
vt 0.069506 0.342195
vt 0.069506 0.341747
vt 0.062487 0.340761
vt 0.062487 0.346182
vt 0.058977 0.340761
vt 0.076526 0.313864
vt 0.076526 0.308443
vt 0.080035 0.313864
vt 0.084394 0.338970
vt 0.082743 0.339610
vt 0.103688 0.350454
vt 0.107198 0.350454
vt 0.087472 0.338650
vt 0.087348 0.339608
vt 0.097321 0.338897
vt 0.097344 0.339904
vt 0.093972 0.339904
vt 0.093159 0.350454
vt 0.096669 0.350454
vt 0.106807 0.339544
vt 0.105727 0.339876
vt 0.104030 0.339104
vt 0.647088 0.605435
vt 0.687747 0.605434
vt 0.687747 0.609013
vt 0.647088 0.609013
vt 0.687747 0.612592
vt 0.647088 0.612592
vt 0.647088 0.598277
vt 0.687747 0.598277
vt 0.687747 0.601856
vt 0.647088 0.601856
vt 0.103344 0.335748
vt 0.104010 0.337899
vt 0.104186 0.333488
vt 0.106690 0.339013
vt 0.107619 0.351842
vt 0.107619 0.354710
vt 0.081133 0.343743
vt 0.084857 0.343746
vt 0.084857 0.345603
vt 0.081133 0.345606
vt 0.089430 0.343749
vt 0.089430 0.345600
vt 0.076526 0.326734
vt 0.076526 0.323010
vt 0.080035 0.323010
vt 0.080035 0.326734
vt 0.076526 0.318437
vt 0.080035 0.318437
vt 0.062487 0.327891
vt 0.062487 0.331616
vt 0.058977 0.331616
vt 0.058977 0.327891
vt 0.062487 0.336189
vt 0.058977 0.336189
vt 0.073016 0.327891
vt 0.073016 0.331616
vt 0.069506 0.331616
vt 0.069506 0.327891
vt 0.073016 0.336189
vt 0.069506 0.336189
vt 0.065997 0.326734
vt 0.065997 0.323010
vt 0.069506 0.323010
vt 0.069506 0.326734
vt 0.065997 0.318437
vt 0.069506 0.318437
vt 0.060086 0.347251
vt 0.068644 0.347258
vt 0.068644 0.351524
vt 0.060086 0.351532
vt 0.079151 0.347265
vt 0.079151 0.351517
vt 0.058977 0.323010
vt 0.058977 0.318437
vt 0.062487 0.318437
vt 0.062487 0.323010
vt 0.058977 0.326734
vt 0.062487 0.326734
vt 0.065997 0.336189
vt 0.065997 0.331616
vt 0.065997 0.327891
vt 0.086140 0.350454
vt 0.089649 0.350454
vt 0.089649 0.351508
vt 0.090629 0.339825
vt 0.065997 0.344189
vt 0.065997 0.342691
vt 0.059855 0.353240
vt 0.063892 0.353240
vt 0.063892 0.355079
vt 0.059855 0.355079
vt 0.087169 0.332520
vt 0.087622 0.335703
vt 0.058977 0.306450
vt 0.062487 0.308443
vt 0.062487 0.313864
vt 0.065997 0.311935
vt 0.089649 0.354992
vt 0.080035 0.331616
vt 0.080035 0.336189
vt 0.076526 0.336189
vt 0.076526 0.331616
vt 0.080035 0.327891
vt 0.076526 0.327891
vt 0.073016 0.318437
vt 0.073016 0.323010
vt 0.073016 0.326734
vt 0.100722 0.339747
vt 0.100178 0.350454
vt 0.100178 0.351508
vt 0.073016 0.310437
vt 0.073016 0.311935
vt 0.080035 0.348176
vt 0.076526 0.346182
vt 0.076526 0.340761
vt 0.073016 0.342691
vt 0.076001 0.353240
vt 0.076001 0.355079
vt 0.100178 0.354992
vt 0.097285 0.335590
vt 0.097386 0.332338
vt 0.065997 0.313864
vt 0.069506 0.313309
vt 0.069506 0.313864
vt 0.073016 0.313864
vt 0.069506 0.340761
vt 0.069506 0.341316
vt 0.065997 0.340761
vt 0.073016 0.340761
vn -1.0000 -0.0000 0.0000
vn -0.0000 -0.0000 -1.0000
vn 0.0000 0.0000 1.0000
vn 0.0000 0.1920 0.9814
vn 0.0000 -1.0000 0.0000
vn 0.0000 -0.7843 0.6204
vn 0.5984 -0.8012 0.0000
vn -0.0000 -0.7843 -0.6204
vn -0.6434 -0.7655 0.0000
vn 0.0018 -0.0005 1.0000
vn 0.0017 0.0000 1.0000
vn 0.0018 0.0000 1.0000
vn 0.0000 1.0000 0.0000
vn 0.9814 0.1920 0.0000
vn -0.9814 0.1920 0.0000
vn 0.0000 0.1920 -0.9814
vn 0.4249 0.9052 -0.0006
vn 0.2493 0.9684 -0.0004
vn 0.4979 -0.8672 -0.0007
vn 0.4903 -0.8716 -0.0006
vn -0.0010 0.0005 -1.0000
vn -0.0011 -0.0000 -1.0000
vn -0.0007 -0.0001 -1.0000
vn -0.0008 -0.0005 -1.0000
vn -0.0007 -0.0000 -1.0000
vn 0.0021 0.0001 1.0000
vn 0.0020 0.0005 1.0000
vn 0.0021 0.0000 1.0000
vn 0.7694 0.0000 0.6388
vn 0.7692 -0.0001 -0.6390
vn 0.7693 -0.0000 -0.6388
vn 0.7684 -0.0002 -0.6399
vn 0.7690 -0.0001 -0.6393
vn 1.0000 0.0000 -0.0000
vn -0.0000 0.7316 -0.6817
vn -0.7141 0.7000 0.0000
vn 0.6509 0.7591 0.0000
vn 0.0000 0.7316 0.6817
vn 0.0780 -0.9970 -0.0001
vn 0.0779 -0.9970 -0.0001
vn 0.2489 -0.9685 -0.0003
vn 0.0032 0.0000 1.0000
vn 0.0027 0.0000 1.0000
vn -0.0008 -0.0003 -1.0000
vn -0.0008 -0.0001 -1.0000
vn -0.0009 -0.0003 -1.0000
vn -0.0010 -0.0005 -1.0000
vn -0.0009 -0.0000 -1.0000
vn -0.0008 0.0001 -1.0000
vn 0.0026 0.0000 1.0000
vn 0.0020 -0.0001 1.0000
vn 0.0019 0.0000 1.0000
vn 0.0782 0.9969 -0.0001
vn 0.0783 0.9969 -0.0001
vn 0.0021 -0.0001 1.0000
vn -0.0008 -0.0002 -1.0000
vn -0.0008 0.0002 -1.0000
vn 0.7691 0.0000 -0.6391
vn 0.4245 -0.9054 -0.0006
vn 0.0020 -0.0005 1.0000
vn 0.0019 -0.0004 1.0000
vn -0.0009 0.0003 -1.0000
vn -0.0007 0.0001 -1.0000
vn -0.0011 0.0005 -1.0000
vn 0.0020 0.0002 1.0000
vn 0.7686 0.0004 -0.6397
vn 0.7683 0.0001 -0.6400
vn 0.0018 0.0005 1.0000
vn 0.0019 0.0005 1.0000
vn -0.0008 0.0005 -1.0000
vn -0.0010 0.0004 -1.0000
vn 0.4906 0.8714 -0.0007
vn 0.4983 0.8670 -0.0007
vn -0.0010 -0.0000 -1.0000
usemtl MainMaterial.027
s 1
f 79/1/1 1/2/1 3/3/1 74/4/1
f 74/4/2 3/3/2 7/5/2 76/6/2
f 78/7/3 5/8/3 1/9/3 79/10/3
f 34/11/4 20/12/4 18/13/4 33/14/4
f 6/15/5 2/16/5 4/17/5 8/18/5
f 32/19/6 12/20/6 9/21/6 29/22/6
f 31/23/7 11/24/7 12/25/7 32/26/7
f 30/27/8 10/28/8 11/24/8 31/23/8
f 29/29/9 9/30/9 10/28/9 30/27/9
f 56/31/3 15/32/3 16/33/3 49/34/3
f 60/35/10 22/36/11 100/37/12
f 52/38/2 13/39/2 14/40/2 54/41/2
f 49/42/1 16/43/1 13/39/1 52/38/1
f 18/13/13 20/12/13 19/44/13 17/45/13
f 35/46/14 19/47/14 20/12/14 34/11/14
f 33/14/15 18/13/15 17/45/15 36/48/15
f 36/48/16 17/45/16 19/49/16 35/50/16
f 82/51/17 40/52/18 47/53/18 84/54/17
f 58/55/19 21/56/20 22/57/20 60/58/19
f 81/59/21 21/60/22 104/61/22
f 68/62/23 57/63/24 44/64/25
f 92/65/26 84/66/27 47/67/28
f 11/24/5 28/68/5 24/69/5 12/25/5
f 78/7/29 85/70/29 26/71/29 5/8/29
f 53/72/30 61/73/30 28/68/31 11/24/31
f 75/74/32 87/75/32 27/76/33 14/40/33
f 56/31/29 63/77/29 23/78/29 15/32/29
f 5/79/13 26/80/13 25/81/13 7/5/13
f 2/82/1 29/83/1 30/84/1 4/85/1
f 4/85/2 30/84/2 31/86/2 8/87/2
f 8/88/34 31/89/34 32/90/34 6/91/34
f 6/91/3 32/90/3 29/83/3 2/82/3
f 3/3/35 36/92/35 35/93/35 7/5/35
f 1/2/36 33/94/36 36/92/36 3/3/36
f 7/5/37 35/93/37 34/95/37 5/79/37
f 5/8/38 34/96/38 33/97/38 1/9/38
f 28/98/5 43/99/39 46/100/40 24/101/5
f 43/99/39 44/102/41 45/103/41 46/100/40
f 85/104/42 90/105/43 48/106/43 26/107/42
f 90/105/43 92/108/26 47/109/28 48/106/43
f 61/110/44 66/111/45 43/112/46 28/113/47
f 66/111/45 68/114/23 44/115/25 43/112/46
f 87/116/44 94/117/45 41/118/48 27/119/22
f 94/117/45 96/120/49 42/121/48 41/118/48
f 63/122/42 70/123/50 37/124/50 23/125/42
f 70/123/50 72/126/51 38/127/52 37/124/50
f 26/128/13 48/129/53 39/130/54 25/131/13
f 48/129/53 47/132/18 40/133/18 39/130/54
f 46/134/43 45/135/28 71/136/55 69/137/50
f 69/137/50 71/136/55 72/126/51 70/123/50
f 24/138/42 46/134/43 69/137/50 64/139/42
f 64/139/42 69/137/50 70/123/50 63/122/42
f 41/118/48 42/121/48 67/140/56 65/141/49
f 65/141/49 67/140/56 68/114/23 66/111/45
f 27/119/22 41/118/48 65/141/49 62/142/57
f 62/142/57 65/141/49 66/111/45 61/110/44
f 12/20/29 24/143/29 64/144/29 55/145/29
f 55/145/29 64/144/29 63/77/29 56/31/29
f 14/40/33 27/76/33 62/146/58 54/41/58
f 54/41/58 62/146/58 61/73/30 53/72/30
f 104/61/22 21/60/22 58/147/47
f 103/148/47 58/147/47 57/63/24
f 44/149/41 57/150/59 59/151/59 45/152/41
f 57/150/59 58/55/19 60/58/19 59/151/59
f 9/30/1 50/153/1 51/154/1 10/28/1
f 50/153/1 49/42/1 52/38/1 51/154/1
f 10/28/2 51/154/2 53/72/2 11/24/2
f 51/154/2 52/38/2 54/41/2 53/72/2
f 45/155/28 59/156/60 71/157/55
f 59/156/60 60/35/10 99/158/61
f 12/20/3 55/145/3 50/159/3 9/21/3
f 55/145/3 56/31/3 49/34/3 50/159/3
f 39/160/62 40/161/25 95/162/63 93/163/49
f 93/163/49 95/162/63 96/120/49 94/117/45
f 25/164/64 39/160/62 93/163/49 88/165/57
f 88/165/57 93/163/49 94/117/45 87/116/44
f 37/124/50 38/127/52 91/166/65 89/167/43
f 89/167/43 91/166/65 92/108/26 90/105/43
f 23/125/42 37/124/50 89/167/43 86/168/42
f 86/168/42 89/167/43 90/105/43 85/104/42
f 7/5/66 25/81/66 88/169/67 76/6/67
f 76/6/67 88/169/67 87/75/32 75/74/32
f 15/32/29 23/78/29 86/170/29 77/171/29
f 77/171/29 86/170/29 85/70/29 78/7/29
f 100/37/12 22/36/11 83/172/68
f 97/173/69 83/172/68 84/66/27
f 40/174/25 82/175/70 95/176/63
f 82/175/70 81/59/21 101/177/71
f 21/56/72 81/178/73 83/179/73 22/57/72
f 81/178/73 82/51/17 84/54/17 83/179/73
f 15/32/3 77/171/3 80/180/3 16/33/3
f 77/171/3 78/7/3 79/10/3 80/180/3
f 13/39/2 73/181/2 75/74/2 14/40/2
f 73/181/2 74/4/2 76/6/2 75/74/2
f 16/43/1 80/182/1 73/181/1 13/39/1
f 80/182/1 79/1/1 74/4/1 73/181/1
f 72/183/51 99/158/61 98/184/12 38/185/52
f 38/185/52 98/184/12 97/173/69 91/186/65
f 91/186/65 97/173/69 84/66/27 92/65/26
f 71/157/55 59/156/60 99/158/61 72/183/51
f 98/184/12 100/37/12 83/172/68 97/173/69
f 99/158/61 60/35/10 100/37/12 98/184/12
f 42/187/48 102/188/74 103/148/47 67/189/56
f 96/190/49 101/177/71 102/188/74 42/187/48
f 95/176/63 82/175/70 101/177/71 96/190/49
f 67/189/56 103/148/47 57/63/24 68/62/23
f 101/177/71 81/59/21 104/61/22 102/188/74
f 102/188/74 104/61/22 58/147/47 103/148/47
