# Blender v3.0.0 OBJ File: ''
# www.blender.org
mtllib vaseTall.mtl
o DesertJar02_Cylinder.016
v 4.782979 -14.235839 -3.524796
v 4.782979 -14.375414 -3.384804
v 4.921596 -14.375413 -3.327388
v 4.979012 -14.375413 -3.188771
v 4.921596 -14.375413 -3.050155
v 4.782979 -14.375413 -2.992738
v 4.644363 -14.375413 -3.050155
v 4.586946 -14.375413 -3.188771
v 4.644363 -14.375413 -3.327388
v 4.782979 -14.236099 -3.491585
v 4.782979 -14.056622 -3.581770
v 4.782979 -13.033596 -3.472468
v 4.782979 -12.816848 -3.470314
v 4.982060 -12.816848 -3.387852
v 4.983583 -13.033596 -3.389375
v 5.060872 -14.056622 -3.466664
v 4.997100 -14.236099 -3.402893
v 5.064522 -12.816848 -3.188771
v 5.066676 -13.033596 -3.188771
v 5.175978 -14.056622 -3.188771
v 5.085793 -14.236099 -3.188771
v 4.982060 -12.816848 -2.989690
v 4.983583 -13.033596 -2.988167
v 5.060872 -14.056622 -2.910879
v 4.997100 -14.236099 -2.974650
v 4.782979 -12.816848 -2.907228
v 4.782979 -13.033596 -2.905074
v 4.782979 -14.056622 -2.795772
v 4.782979 -14.236099 -2.885958
v 4.583898 -12.816848 -2.989690
v 4.582375 -13.033596 -2.988167
v 4.505086 -14.056622 -2.910879
v 4.568857 -14.236099 -2.974650
v 4.501436 -12.816848 -3.188771
v 4.499282 -13.033596 -3.188771
v 4.389980 -14.056622 -3.188771
v 4.480165 -14.236099 -3.188771
v 4.583898 -12.816848 -3.387852
v 4.582375 -13.033596 -3.389375
v 4.505086 -14.056622 -3.466664
v 4.568857 -14.236099 -3.402893
v 4.782979 -14.375413 -3.188771
v 4.782979 -14.056622 -3.598894
v 4.782979 -13.033596 -3.484829
v 4.782979 -12.816848 -3.520619
v 5.017631 -12.816848 -3.423423
v 4.992323 -13.033596 -3.398116
v 5.072979 -14.056622 -3.478772
v 5.020584 -14.235839 -3.426377
v 5.114827 -12.816848 -3.188771
v 5.079037 -13.033596 -3.188771
v 5.193102 -14.056622 -3.188771
v 5.119004 -14.235839 -3.188771
v 5.017631 -12.816848 -2.954119
v 4.992323 -13.033596 -2.979427
v 5.072979 -14.056622 -2.898771
v 5.020584 -14.235839 -2.951166
v 4.782979 -12.816848 -2.856923
v 4.782979 -13.033596 -2.892713
v 4.782979 -14.056622 -2.778649
v 4.782979 -14.235839 -2.852747
v 4.548327 -12.816848 -2.954119
v 4.573635 -13.033596 -2.979427
v 4.492979 -14.056622 -2.898771
v 4.545373 -14.235839 -2.951166
v 4.451131 -12.816848 -3.188771
v 4.486921 -13.033596 -3.188771
v 4.372857 -14.056622 -3.188771
v 4.446954 -14.235839 -3.188771
v 4.548327 -12.816848 -3.423423
v 4.573635 -13.033596 -3.398116
v 4.492979 -14.056622 -3.478772
v 4.545373 -14.235839 -3.426377
v 4.782979 -12.963897 -3.401131
v 4.933140 -12.963897 -3.338932
v 4.995338 -12.963897 -3.188771
v 4.933140 -12.963897 -3.038610
v 4.782979 -12.963897 -2.976412
v 4.632818 -12.963897 -3.038610
v 4.570620 -12.963897 -3.188771
v 4.632818 -12.963897 -3.338932
v 4.790206 -13.053174 -3.172887
v 4.391668 -13.598554 -3.580082
v 4.412023 -13.316075 -3.559727
v 4.782979 -13.316075 -3.713382
v 4.782979 -13.598554 -3.742168
v 4.229582 -13.598554 -3.188771
v 4.258368 -13.316075 -3.188771
v 4.391668 -13.598554 -2.797461
v 4.412023 -13.316075 -2.817816
v 4.782979 -13.598554 -2.635374
v 4.782979 -13.316075 -2.664160
v 5.174290 -13.598554 -2.797461
v 5.153935 -13.316075 -2.817816
v 5.336376 -13.598554 -3.188771
v 5.307590 -13.316075 -3.188771
v 5.174290 -13.598554 -3.580082
v 5.153935 -13.316075 -3.559727
v 4.782979 -13.827587 -3.676321
v 4.438230 -13.827587 -3.533521
v 4.295430 -13.827587 -3.188771
v 4.438230 -13.827587 -2.844022
v 4.782979 -13.827587 -2.701222
v 5.127728 -13.827587 -2.844022
v 5.270528 -13.827587 -3.188771
v 5.127728 -13.827587 -3.533521
vt 0.542583 0.538106
vt 0.549618 0.539452
vt 0.546038 0.549145
vt 0.540352 0.545596
vt 0.160977 0.611122
vt 0.165368 0.612271
vt 0.165354 0.613065
vt 0.160950 0.611946
vt 0.541981 0.548031
vt 0.541981 0.551691
vt 0.538558 0.551691
vt 0.538557 0.548031
vt 0.177689 0.618822
vt 0.173698 0.620304
vt 0.173680 0.619526
vt 0.177661 0.618079
vt 0.509277 0.544080
vt 0.504466 0.545391
vt 0.503773 0.538106
vt 0.508756 0.538350
vt 0.157804 0.617737
vt 0.153942 0.619485
vt 0.153902 0.618752
vt 0.157782 0.617011
vt 0.518015 0.548031
vt 0.518015 0.551691
vt 0.514592 0.551691
vt 0.514592 0.548031
vt 0.173635 0.612182
vt 0.177504 0.611082
vt 0.177525 0.611784
vt 0.173646 0.612913
vt 0.512037 0.549198
vt 0.507804 0.552333
vt 0.153674 0.611882
vt 0.157612 0.609730
vt 0.157642 0.610498
vt 0.153704 0.612612
vt 0.521439 0.548031
vt 0.521439 0.551691
vt 0.170360 0.616507
vt 0.165993 0.616163
vt 0.165994 0.615374
vt 0.170374 0.615686
vt 0.516714 0.553056
vt 0.513832 0.557792
vt 0.160610 0.620221
vt 0.155851 0.618354
vt 0.155886 0.617387
vt 0.160634 0.619336
vt 0.524863 0.548031
vt 0.524863 0.551691
vt 0.166066 0.607399
vt 0.170582 0.607399
vt 0.170573 0.608276
vt 0.166072 0.608240
vt 0.522778 0.554942
vt 0.521864 0.560690
vt 0.156422 0.609037
vt 0.156369 0.609879
vt 0.528286 0.548031
vt 0.528286 0.551691
vt 0.169518 0.621074
vt 0.169512 0.620262
vt 0.529410 0.554362
vt 0.530811 0.560303
vt 0.149922 0.623041
vt 0.149765 0.622334
vt 0.531710 0.548031
vt 0.531710 0.551691
vt 0.169588 0.612604
vt 0.169588 0.613366
vt 0.535612 0.551161
vt 0.539337 0.556365
vt 0.149222 0.613747
vt 0.149154 0.614581
vt 0.535134 0.548031
vt 0.535134 0.551691
vt 0.161807 0.616599
vt 0.161796 0.615843
vt 0.150383 0.616266
vt 0.150284 0.615074
vt 0.161742 0.608197
vt 0.161760 0.609001
vt 0.537720 0.544048
vt 0.533916 0.548848
vt 0.528754 0.551710
vt 0.523159 0.552365
vt 0.517984 0.550918
vt 0.513930 0.547768
vt 0.511411 0.543503
vt 0.539382 0.538481
vt 0.185274 0.606638
vt 0.185865 0.614133
vt 0.181467 0.616036
vt 0.181276 0.610101
vt 0.185965 0.613607
vt 0.185086 0.623959
vt 0.179670 0.618981
vt 0.180169 0.611215
vt 0.151134 0.605067
vt 0.165162 0.620227
vt 0.175258 0.609197
vt 0.174931 0.616843
vt 0.175282 0.608282
vt 0.165154 0.621074
vt 0.181237 0.609393
vt 0.185123 0.605955
vt 0.174903 0.617696
vt 0.185799 0.614939
vt 0.181496 0.616742
vt 0.180206 0.610213
vt 0.185863 0.612374
vt 0.184894 0.624792
vt 0.179615 0.619853
vt 0.151319 0.604262
vt 0.153942 0.619485
vt 0.149922 0.623041
vt 0.179615 0.619853
vt 0.174903 0.617696
vt 0.161807 0.616599
vt 0.157804 0.617737
vt 0.184894 0.624792
vt 0.170360 0.616507
vt 0.165993 0.616163
vt 0.228047 0.681635
vt 0.232067 0.678079
vt 0.228047 0.681635
vt 0.235929 0.676331
vt 0.239932 0.675193
vt 0.235929 0.676331
vt 0.244118 0.674756
vt 0.248485 0.675101
vt 0.244118 0.674756
vt 0.253028 0.676290
vt 0.257740 0.678447
vt 0.253028 0.676290
vt 0.263019 0.683386
vt 0.257740 0.678447
vt 0.232067 0.678079
vt 0.239932 0.675193
vt 0.248485 0.675101
vt 0.538557 0.542540
vt 0.538557 0.544371
vt 0.535134 0.544371
vt 0.535134 0.542540
vt 0.531710 0.544371
vt 0.531710 0.542540
vt 0.528286 0.544371
vt 0.528286 0.542540
vt 0.524863 0.544370
vt 0.524863 0.542540
vt 0.521439 0.544371
vt 0.521439 0.542540
vt 0.518015 0.544370
vt 0.518015 0.542540
vt 0.514592 0.544370
vt 0.514592 0.542540
vt 0.541981 0.542540
vt 0.541981 0.544371
vt 0.541981 0.540710
vt 0.538558 0.540710
vt 0.518015 0.540710
vt 0.514592 0.540710
vt 0.521439 0.540710
vt 0.524863 0.540710
vt 0.528286 0.540710
vt 0.531710 0.540710
vt 0.535134 0.540710
vn -0.3123 -0.5779 -0.7540
vn -0.0055 -1.0000 0.0055
vn 0.0000 -1.0000 0.0078
vn -0.3006 0.6189 -0.7257
vn 0.0000 1.0000 0.0000
vn -0.7540 -0.5779 -0.3123
vn -0.7257 0.6189 -0.3006
vn 0.0078 -1.0000 0.0000
vn 0.0055 -1.0000 -0.0055
vn -0.7540 -0.5779 0.3123
vn 0.0000 -1.0000 -0.0000
vn 0.0000 -1.0000 0.0001
vn -0.7257 0.6189 0.3006
vn -0.3123 -0.5779 0.7540
vn -0.3006 0.6189 0.7257
vn 0.3123 -0.5779 0.7540
vn -0.0078 -1.0000 0.0000
vn 0.3006 0.6189 0.7257
vn 0.7540 -0.5779 0.3123
vn 0.7257 0.6189 0.3006
vn 0.0055 -1.0000 0.0055
vn 0.7540 -0.5779 -0.3123
vn 0.0000 -1.0000 -0.0001
vn 0.7257 0.6189 -0.3006
vn 0.3123 -0.5779 -0.7540
vn 0.3006 0.6189 -0.7257
vn -0.3575 -0.3568 -0.8631
vn -0.3783 -0.1508 -0.9133
vn -0.8631 -0.3568 -0.3575
vn -0.9133 -0.1508 -0.3783
vn -0.8631 -0.3568 0.3575
vn -0.9133 -0.1508 0.3783
vn -0.3575 -0.3568 0.8631
vn -0.3783 -0.1508 0.9133
vn 0.3575 -0.3568 0.8631
vn 0.3783 -0.1508 0.9133
vn 0.8631 -0.3568 0.3575
vn 0.9133 -0.1508 0.3783
vn 0.8631 -0.3568 -0.3575
vn 0.9133 -0.1508 -0.3783
vn 0.3575 -0.3568 -0.8631
vn 0.3783 -0.1508 -0.9133
vn 0.0000 -1.0000 -0.0078
vn -0.0055 -1.0000 -0.0055
vn 0.8473 0.3986 0.3510
vn -0.3510 0.3986 0.8473
vn 0.3510 0.3986 -0.8473
vn 0.3510 0.3986 0.8473
vn -0.8473 0.3986 0.3510
vn -0.3510 0.3986 -0.8473
vn 0.8473 0.3986 -0.3510
vn -0.8473 0.3986 -0.3510
vn 0.3630 0.9196 0.1504
vn 0.1668 0.9000 -0.4028
vn -0.4043 0.8992 -0.1675
vn -0.1509 0.9190 0.3642
vn 0.1476 0.9227 0.3562
vn 0.3817 0.9107 -0.1581
vn -0.1710 0.8946 -0.4128
vn -0.3836 0.9097 0.1589
vn 0.3699 -0.2567 -0.8929
vn 0.3810 0.0937 -0.9198
vn 0.8929 -0.2567 -0.3699
vn 0.9198 0.0937 -0.3810
vn 0.8929 -0.2567 0.3699
vn 0.9198 0.0937 0.3810
vn 0.3699 -0.2567 0.8929
vn 0.3810 0.0937 0.9198
vn -0.3699 -0.2567 0.8929
vn -0.3810 0.0937 0.9198
vn -0.8929 -0.2567 0.3699
vn -0.9198 0.0937 0.3810
vn -0.8929 -0.2567 -0.3699
vn -0.9198 0.0937 -0.3810
vn -0.3699 -0.2567 -0.8929
vn -0.3810 0.0937 -0.9198
vn -0.3576 -0.3564 -0.8632
vn -0.8632 -0.3564 -0.3576
vn -0.8632 -0.3564 0.3576
vn -0.3576 -0.3564 0.8632
vn 0.3576 -0.3564 0.8632
vn 0.8632 -0.3564 0.3576
vn 0.8632 -0.3564 -0.3576
vn 0.3576 -0.3564 -0.8632
usemtl MainMaterial.032
s 1
f 9/1/1 41/2/1 10/3/1 2/4/1
f 33/5/2 29/6/3 61/7/3 65/8/2
f 84/9/4 39/10/4 12/11/4 85/12/4
f 16/13/5 20/14/5 52/15/5 48/16/5
f 8/17/6 37/18/6 41/19/6 9/20/6
f 30/21/5 34/22/5 66/23/5 62/24/5
f 88/25/7 35/26/7 39/27/7 84/28/7
f 21/29/8 17/30/9 49/31/9 53/32/8
f 7/33/10 33/34/10 37/18/10 8/17/10
f 35/35/11 31/36/12 63/37/12 67/38/11
f 90/39/13 31/40/13 35/26/13 88/25/13
f 18/41/5 22/42/5 54/43/5 50/44/5
f 6/45/14 29/46/14 33/34/14 7/33/14
f 32/47/5 36/48/5 68/49/5 64/50/5
f 92/51/15 27/52/15 31/40/15 90/39/15
f 23/53/12 19/54/11 51/55/11 55/56/12
f 5/57/16 25/58/16 29/46/16 6/45/16
f 37/59/17 33/5/2 65/8/2 69/60/17
f 94/61/18 23/62/18 27/52/18 92/51/18
f 20/14/5 24/63/5 56/64/5 52/15/5
f 4/65/19 21/66/19 25/58/19 5/57/19
f 34/22/5 38/67/5 70/68/5 66/23/5
f 96/69/20 19/70/20 23/62/20 94/61/20
f 25/71/21 21/29/8 53/32/8 57/72/21
f 3/73/22 17/74/22 21/66/22 4/65/22
f 39/75/23 35/35/11 67/38/11 71/76/23
f 98/77/24 15/78/24 19/70/24 96/69/24
f 22/42/5 26/79/5 58/80/5 54/43/5
f 2/4/25 10/3/25 17/74/25 3/73/25
f 36/48/5 40/81/5 72/82/5 68/49/5
f 85/12/26 12/11/26 15/78/26 98/77/26
f 27/83/12 23/53/12 55/56/12 59/84/12
f 42/85/11 2/4/11 3/73/11
f 42/86/11 3/73/11 4/65/11
f 42/87/11 4/65/11 5/57/11
f 42/88/11 5/57/11 6/45/11
f 42/89/11 6/45/11 7/33/11
f 42/90/11 7/33/11 8/17/11
f 42/91/11 8/17/11 9/20/11
f 42/92/11 9/1/11 2/4/11
f 73/93/27 72/94/27 43/95/27 1/96/27
f 71/97/28 70/98/28 45/99/28 44/100/28
f 69/60/29 68/49/29 72/82/29 73/101/29
f 67/38/30 66/23/30 70/68/30 71/76/30
f 65/8/31 64/50/31 68/49/31 69/60/31
f 63/37/32 62/24/32 66/23/32 67/38/32
f 61/7/33 60/102/33 64/50/33 65/8/33
f 59/84/34 58/80/34 62/24/34 63/37/34
f 57/72/35 56/64/35 60/102/35 61/7/35
f 55/56/36 54/43/36 58/80/36 59/84/36
f 53/32/37 52/15/37 56/64/37 57/72/37
f 51/55/38 50/44/38 54/43/38 55/56/38
f 49/31/39 48/16/39 52/15/39 53/32/39
f 47/103/40 46/104/40 50/44/40 51/55/40
f 1/96/41 43/95/41 48/16/41 49/31/41
f 44/100/42 45/99/42 46/104/42 47/103/42
f 19/54/11 15/105/23 47/103/23 51/55/11
f 28/106/5 32/47/5 64/50/5 60/102/5
f 10/107/43 41/108/44 73/93/44 1/96/43
f 14/109/5 18/41/5 50/44/5 46/104/5
f 31/36/12 27/83/12 59/84/12 63/37/12
f 40/110/5 11/111/5 43/95/5 72/94/5
f 17/30/9 10/107/43 1/96/43 49/31/9
f 26/79/5 30/21/5 62/24/5 58/80/5
f 12/112/23 39/113/23 71/97/23 44/100/23
f 11/111/5 16/13/5 48/16/5 43/95/5
f 29/6/3 25/71/21 57/72/21 61/7/3
f 38/114/5 13/115/5 45/99/5 70/98/5
f 15/105/23 12/112/23 44/100/23 47/103/23
f 24/63/5 28/106/5 60/102/5 56/64/5
f 41/116/44 37/59/17 69/60/17 73/101/44
f 13/115/5 14/109/5 46/104/5 45/99/5
f 38/67/45 34/22/45 80/117/45 81/118/45
f 14/109/46 13/115/46 74/119/46 75/120/46
f 30/21/47 26/79/47 78/121/47 79/122/47
f 13/115/48 38/114/48 81/123/48 74/119/48
f 18/41/49 14/109/49 75/120/49 76/124/49
f 26/79/50 22/42/50 77/125/50 78/121/50
f 34/22/51 30/21/51 79/122/51 80/117/51
f 22/42/52 18/41/52 76/124/52 77/125/52
f 81/126/53 80/127/53 82/128/53
f 79/129/54 78/130/54 82/131/54
f 77/132/55 76/133/55 82/134/55
f 75/135/56 74/136/56 82/137/56
f 74/136/57 81/138/57 82/139/57
f 80/127/58 79/129/58 82/140/58
f 78/130/59 77/132/59 82/141/59
f 76/133/60 75/135/60 82/142/60
f 99/143/61 86/144/61 97/145/61 106/146/61
f 86/144/62 85/12/62 98/77/62 97/145/62
f 106/146/63 97/145/63 95/147/63 105/148/63
f 97/145/64 98/77/64 96/69/64 95/147/64
f 105/148/65 95/147/65 93/149/65 104/150/65
f 95/147/66 96/69/66 94/61/66 93/149/66
f 104/150/67 93/149/67 91/151/67 103/152/67
f 93/149/68 94/61/68 92/51/68 91/151/68
f 103/152/69 91/151/69 89/153/69 102/154/69
f 91/151/70 92/51/70 90/39/70 89/153/70
f 102/154/71 89/153/71 87/155/71 101/156/71
f 89/153/72 90/39/72 88/25/72 87/155/72
f 101/156/73 87/155/73 83/157/73 100/158/73
f 87/155/74 88/25/74 84/28/74 83/157/74
f 100/159/75 83/160/75 86/144/75 99/143/75
f 83/160/76 84/9/76 85/12/76 86/144/76
f 40/161/77 100/159/77 99/143/77 11/162/77
f 36/163/78 101/156/78 100/158/78 40/164/78
f 32/165/79 102/154/79 101/156/79 36/163/79
f 28/166/80 103/152/80 102/154/80 32/165/80
f 24/167/81 104/150/81 103/152/81 28/166/81
f 20/168/82 105/148/82 104/150/82 24/167/82
f 16/169/83 106/146/83 105/148/83 20/168/83
f 11/162/84 99/143/84 106/146/84 16/169/84
